<svg height="512" viewBox="0 0 74 74" width="512" xmlns="http://www.w3.org/2000/svg"><g id="line_color" data-name="line color"><g fill="#323c6b"><path d="m18.876 14.5a.5.5 0 0 1 -.5-.5v-3.37a11.092 11.092 0 0 1 1.694-5.9.5.5 0 0 1 .848.531 10.09 10.09 0 0 0 -1.542 5.367v3.372a.5.5 0 0 1 -.5.5z"/><path d="m18.876 19.625a.5.5 0 0 1 -.5-.5v-1a.5.5 0 0 1 1 0v1a.5.5 0 0 1 -.5.5z"/><path d="m31.86 74.363a.5.5 0 0 1 -.057-1q.617-.072 1.223-.182a.5.5 0 0 1 .179.984q-.637.115-1.286.19a.469.469 0 0 1 -.059.008z"/><path d="m36.4 73.279a.5.5 0 0 1 -.173-.969 19.651 19.651 0 0 0 8.424-6.05.5.5 0 1 1 .776.631 20.652 20.652 0 0 1 -8.854 6.356.491.491 0 0 1 -.173.032z"/></g><path d="m46.391 55.956a17 17 0 1 1 -24.515-17.156v-28.17a7.63 7.63 0 0 1 7.631-7.63 7.63 7.63 0 0 1 7.63 7.63v28.17a17.006 17.006 0 0 1 9.254 17.156z" fill="#b6d2dd"/><path d="m29.544 71.5a17.5 17.5 0 0 1 -8.168-33v-27.87a8.131 8.131 0 0 1 16.261 0v27.87a17.415 17.415 0 0 1 9.251 17.512 17.438 17.438 0 0 1 -17.344 15.488zm-.038-68a7.139 7.139 0 0 0 -7.13 7.13v28.17a.5.5 0 0 1 -.275.447 16.5 16.5 0 1 0 14.811 0 .5.5 0 0 1 -.275-.447v-28.17a7.139 7.139 0 0 0 -7.131-7.13z" fill="#323c6b"/><path d="m37.137 38.8v-28.17a7.629 7.629 0 0 0 -9.13-7.481 7.632 7.632 0 0 1 6.13 7.481v28.17a17.005 17.005 0 0 1 -5.621 32.079c-.2.023-.391.02-.588.036a17.356 17.356 0 0 0 3.588-.036 17.005 17.005 0 0 0 5.621-32.079z" fill="#acc6cc"/><circle cx="29.5" cy="54" fill="#eeefee" r="9"/><g fill="#323c6b"><path d="m29.5 63.5a9.5 9.5 0 1 1 9.5-9.5 9.511 9.511 0 0 1 -9.5 9.5zm0-18a8.5 8.5 0 1 0 8.5 8.5 8.51 8.51 0 0 0 -8.5-8.5z"/><path d="m29.5 45.5a.5.5 0 0 1 -.5-.5v-29a.5.5 0 0 1 1 0v29a.5.5 0 0 1 -.5.5z"/><path d="m29.544 71.5a17.5 17.5 0 0 1 -8.168-33v-27.87a8.131 8.131 0 0 1 16.261 0v27.87a17.415 17.415 0 0 1 9.251 17.512 17.438 17.438 0 0 1 -17.344 15.488zm-.038-68a7.139 7.139 0 0 0 -7.13 7.13v28.17a.5.5 0 0 1 -.275.447 16.5 16.5 0 1 0 14.811 0 .5.5 0 0 1 -.275-.447v-28.17a7.139 7.139 0 0 0 -7.131-7.13z"/><path d="m61.5 56.5h-9a.5.5 0 0 1 0-1h9a.5.5 0 0 1 0 1z"/><path d="m61.5 49.5h-6a.5.5 0 0 1 0-1h6a.5.5 0 0 1 0 1z"/><path d="m61.5 42.5h-9a.5.5 0 0 1 0-1h9a.5.5 0 0 1 0 1z"/><path d="m61.5 35.5h-6a.5.5 0 0 1 0-1h6a.5.5 0 0 1 0 1z"/><path d="m61.5 28.5h-9a.5.5 0 0 1 0-1h9a.5.5 0 0 1 0 1z"/><path d="m61.5 21.5h-6a.5.5 0 0 1 0-1h6a.5.5 0 0 1 0 1z"/><path d="m61.5 14.5h-9a.5.5 0 0 1 0-1h9a.5.5 0 0 1 0 1z"/><path d="m61.5 7.5h-6a.5.5 0 0 1 0-1h6a.5.5 0 0 1 0 1z"/></g><path d="m22.368 41.8c-.013-.021-.028-.041-.043-.061a.951.951 0 0 0 -1.334-.176 4.392 4.392 0 0 0 -.728.622.951.951 0 0 0 1.316 1.375 3.016 3.016 0 0 1 .57-.487.952.952 0 0 0 .219-1.273z" fill="#eeefee"/><path d="m19.394 45.053a.953.953 0 0 0 -1.56-.135 14.513 14.513 0 0 0 -2.872 11.535.952.952 0 0 0 1.9.038 12.722 12.722 0 0 1 2.438-10.361.952.952 0 0 0 .094-1.077z" fill="#eeefee"/></g></svg>