<svg height="512" viewBox="0 0 74 74" width="512" xmlns="http://www.w3.org/2000/svg"><g id="line_color" data-name="line color"><path d="m29.3 53.69a6.474 6.474 0 0 0 .46 2.42 4.761 4.761 0 0 1 -1.36.2h-19.81a5.555 5.555 0 0 1 -.38-11.1.584.584 0 0 1 .02-.13v-.02a7.431 7.431 0 0 1 6.28-6.59 7.112 7.112 0 0 1 1.14-.09 7.438 7.438 0 0 1 4.68 1.64l.03.03a6.977 6.977 0 0 1 1.12 1.12 5.864 5.864 0 0 1 1.84-.3 5.79 5.79 0 0 1 5.79 5.77 4.909 4.909 0 0 1 3.02 1.67 6.5 6.5 0 0 0 -2.83 5.38z" fill="#dbd8dd"/><g fill="#323c6b"><path d="m28.4 56.81h-19.81a6.055 6.055 0 0 1 -.821-12.059 7.917 7.917 0 0 1 6.666-6.776 7.652 7.652 0 0 1 1.216-.1 7.989 7.989 0 0 1 4.993 1.75 8.391 8.391 0 0 1 1.01.965 6.339 6.339 0 0 1 4.765.591 6.259 6.259 0 0 1 3.181 5.042 5.407 5.407 0 0 1 2.914 1.763.5.5 0 0 1 -.1.737 6.048 6.048 0 0 0 -2.188 7.2.5.5 0 0 1 -.321.665 5.213 5.213 0 0 1 -1.505.222zm-12.75-17.93a6.731 6.731 0 0 0 -1.062.083 6.909 6.909 0 0 0 -5.86 6.146.86.86 0 0 1 -.015.1.5.5 0 0 1 -.472.5 5.055 5.055 0 0 0 .348 10.1h19.811a4.175 4.175 0 0 0 .7-.059 7.058 7.058 0 0 1 2.274-7.5 4.426 4.426 0 0 0 -2.341-1.114.5.5 0 0 1 -.427-.495 5.258 5.258 0 0 0 -2.685-4.584 5.354 5.354 0 0 0 -4.287-.412.5.5 0 0 1 -.552-.165 6.542 6.542 0 0 0 -1.04-1.04 6.99 6.99 0 0 0 -4.392-1.56z"/><path d="m29.77 56.61h-.01v-1z"/><path d="m61.5 63.72h-.458a.5.5 0 0 1 0-1h.458a.5.5 0 0 1 0 1z"/><path d="m65.48 63.72h-1.313a.5.5 0 0 1 0-1h1.313a8.023 8.023 0 0 0 7.05-4.206.5.5 0 0 1 .879.478 9.024 9.024 0 0 1 -7.929 4.728z"/></g><path d="m71 54.69a5.527 5.527 0 0 1 -5.52 5.53h-29.67a6.525 6.525 0 0 1 0-13.05 6.229 6.229 0 0 1 1.56.19 6.962 6.962 0 0 1 6.78-8.4 6.805 6.805 0 0 1 3.36.87 7.386 7.386 0 0 1 .66.42 9.584 9.584 0 0 1 7.74-3.95 9.807 9.807 0 0 1 3.22.55 9.619 9.619 0 0 1 6.35 9.06 9.486 9.486 0 0 1 -.15 1.69 8.661 8.661 0 0 1 -.42 1.59 3.639 3.639 0 0 1 .57-.04 5.529 5.529 0 0 1 5.52 5.54z" fill="#eeefee"/><path d="m65.48 60.72h-29.67a7.025 7.025 0 0 1 0-14.05 7.074 7.074 0 0 1 .954.063 7.652 7.652 0 0 1 -.044-.823 7.449 7.449 0 0 1 7.431-7.45 7.329 7.329 0 0 1 3.605.935c.1.058.2.117.3.179a9.936 9.936 0 0 1 4.562-3.217 10.1 10.1 0 0 1 13.2 11.332 9.562 9.562 0 0 1 -.213.962 6.035 6.035 0 0 1 -.125 12.069zm-29.67-13.05a6.025 6.025 0 0 0 0 12.05h29.67a5.035 5.035 0 0 0 0-10.07 3.14 3.14 0 0 0 -.492.034.494.494 0 0 1 -.465-.178.5.5 0 0 1 -.082-.491 8.156 8.156 0 0 0 .4-1.5 9.036 9.036 0 0 0 .144-1.608 9.054 9.054 0 0 0 -12.041-8.607 8.964 8.964 0 0 0 -4.37 3.242.5.5 0 0 1 -.7.113 6.766 6.766 0 0 0 -.614-.391 6.331 6.331 0 0 0 -3.114-.806 6.46 6.46 0 0 0 -6.291 7.8.5.5 0 0 1 -.615.588 5.723 5.723 0 0 0 -1.43-.176z" fill="#323c6b"/><g fill="#dbd8dd"><path d="m44.51 39.83a7.386 7.386 0 0 1 .66.42 9.641 9.641 0 0 1 .869-1.024 6.819 6.819 0 0 0 -3.4-.095 6.684 6.684 0 0 1 1.871.699z"/><path d="m34.37 47.36v-.01l-.024.005z"/><path d="m65.48 49.15a3.639 3.639 0 0 0 -.57.04 8.661 8.661 0 0 0 .42-1.59 9.486 9.486 0 0 0 .15-1.69 9.619 9.619 0 0 0 -6.35-9.06 9.807 9.807 0 0 0 -3.22-.55 9.461 9.461 0 0 0 -1.5.123 10.035 10.035 0 0 1 1.721.427 9.619 9.619 0 0 1 6.35 9.06 9.486 9.486 0 0 1 -.15 1.69 8.661 8.661 0 0 1 -.42 1.59 3.639 3.639 0 0 1 .57-.04 5.535 5.535 0 0 1 0 11.07h3a5.535 5.535 0 0 0 0-11.07z"/></g><path d="m65.48 60.72h-29.67a7.025 7.025 0 0 1 0-14.05 7.074 7.074 0 0 1 .954.063 7.652 7.652 0 0 1 -.044-.823 7.449 7.449 0 0 1 7.431-7.45 7.329 7.329 0 0 1 3.605.935c.1.058.2.117.3.179a9.936 9.936 0 0 1 4.562-3.217 10.1 10.1 0 0 1 13.2 11.332 9.562 9.562 0 0 1 -.213.962 6.035 6.035 0 0 1 -.125 12.069zm-29.67-13.05a6.025 6.025 0 0 0 0 12.05h29.67a5.035 5.035 0 0 0 0-10.07 3.14 3.14 0 0 0 -.492.034.494.494 0 0 1 -.465-.178.5.5 0 0 1 -.082-.491 8.156 8.156 0 0 0 .4-1.5 9.036 9.036 0 0 0 .144-1.608 9.054 9.054 0 0 0 -12.041-8.607 8.964 8.964 0 0 0 -4.37 3.242.5.5 0 0 1 -.7.113 6.766 6.766 0 0 0 -.614-.391 6.331 6.331 0 0 0 -3.114-.806 6.46 6.46 0 0 0 -6.291 7.8.5.5 0 0 1 -.615.588 5.723 5.723 0 0 0 -1.43-.176z" fill="#323c6b"/><path d="m15.405 19.726a.5.5 0 0 1 -.339-.868 32.37 32.37 0 0 1 9.3-6.011.5.5 0 1 1 .391.92 31.384 31.384 0 0 0 -9.012 5.827.5.5 0 0 1 -.34.132z" fill="#323c6b"/><path d="m12.489 22.793a.5.5 0 0 1 -.385-.819q.315-.379.642-.747a.5.5 0 1 1 .748.663c-.21.238-.418.479-.62.723a.5.5 0 0 1 -.385.18z" fill="#323c6b"/><path d="m65.33 47.6a9.486 9.486 0 0 0 .15-1.69 9.619 9.619 0 0 0 -6.35-9.06 22.878 22.878 0 0 0 -44.62 1.62 7.431 7.431 0 0 0 -6.28 6.59c-.07-.79-.11-1.6-.11-2.41a28.88 28.88 0 0 1 57.76 0 26.989 26.989 0 0 1 -.55 4.95z" fill="#ef5261"/><path d="m65.331 48.1a.476.476 0 0 1 -.091-.008.5.5 0 0 1 -.4-.581 8.993 8.993 0 0 0 .143-1.6 9.139 9.139 0 0 0 -6.02-8.589.5.5 0 0 1 -.314-.344 22.379 22.379 0 0 0 -43.649 1.583.5.5 0 0 1 -.416.4 6.908 6.908 0 0 0 -5.856 6.145.5.5 0 0 1 -.5.451.5.5 0 0 1 -.5-.456c-.074-.837-.112-1.664-.112-2.455a29.38 29.38 0 0 1 58.76 0 27.687 27.687 0 0 1 -.559 5.042.5.5 0 0 1 -.486.412zm-5.785-11.628a10.123 10.123 0 0 1 5.833 6 28.38 28.38 0 0 0 -56.753-.409 7.94 7.94 0 0 1 5.458-4.029 23.378 23.378 0 0 1 45.462-1.564z" fill="#323c6b"/><path d="m65.88 42.65a28.883 28.883 0 0 0 -50.28-19.388 28.885 28.885 0 0 1 47.917 16.822 9.6 9.6 0 0 1 1.963 5.826 9.486 9.486 0 0 1 -.15 1.69 26.989 26.989 0 0 0 .55-4.95z" fill="#e42542"/><path d="m8.124 42.836c.006.748.041 1.494.106 2.224a7.313 7.313 0 0 1 1.209-3.36 7.456 7.456 0 0 0 -1.315 1.136z" fill="#e42542"/><path d="m12.863 38.945a7.392 7.392 0 0 1 1.647-.475 22.785 22.785 0 0 1 5.348-10.926 22.867 22.867 0 0 0 -6.995 11.401z" fill="#e42542"/><path d="m7.73 45.08v-.02h1z" fill="#323c6b"/><path d="m59.13 36.85a9.807 9.807 0 0 0 -3.22-.55 9.519 9.519 0 0 0 -3.13.53 16.817 16.817 0 0 0 -32.42 3.22l-.03-.03a7.438 7.438 0 0 0 -4.68-1.64 7.112 7.112 0 0 0 -1.14.09 22.878 22.878 0 0 1 44.62-1.62z" fill="#fed19a"/><path d="m20.36 40.55a.5.5 0 0 1 -.351-.144 7.058 7.058 0 0 0 -5.421-1.443.5.5 0 0 1 -.57-.585 23.378 23.378 0 0 1 45.595-1.655.5.5 0 0 1 -.144.494.5.5 0 0 1 -.5.1 9.137 9.137 0 0 0 -6.021-.02.5.5 0 0 1 -.633-.3 16.317 16.317 0 0 0 -31.458 3.126.5.5 0 0 1 -.338.395.515.515 0 0 1 -.159.032zm-4.71-2.67a8.011 8.011 0 0 1 4.365 1.295 17.309 17.309 0 0 1 33.06-2.964 10.1 10.1 0 0 1 5.325-.1 22.379 22.379 0 0 0 -43.265 1.789q.256-.02.515-.02z" fill="#323c6b"/><path d="m52.78 36.83a9.514 9.514 0 0 0 -4.61 3.42 7.386 7.386 0 0 0 -.66-.42 10.883 10.883 0 0 0 -21.34 1.78v.01a5.715 5.715 0 0 0 -2.85-.75 5.864 5.864 0 0 0 -1.84.3 6.977 6.977 0 0 0 -1.12-1.12 16.817 16.817 0 0 1 32.42-3.22z" fill="#2cbfae"/><path d="m26.162 42.118a.483.483 0 0 1 -.24-.063 5.356 5.356 0 0 0 -4.283-.41.5.5 0 0 1 -.552-.165 6.542 6.542 0 0 0 -1.04-1.04.5.5 0 0 1 -.18-.47 17.317 17.317 0 0 1 33.382-3.313.5.5 0 0 1 -.307.648 8.96 8.96 0 0 0 -4.368 3.241.5.5 0 0 1 -.7.113 6.766 6.766 0 0 0 -.614-.391.5.5 0 0 1 -.237-.305 10.383 10.383 0 0 0 -20.359 1.7.509.509 0 0 1 -.269.4.517.517 0 0 1 -.233.055zm-2.842-1.748a6.285 6.285 0 0 1 2.446.494 11.38 11.38 0 0 1 22.171-1.364l.12.074a9.946 9.946 0 0 1 4.073-3.035 16.312 16.312 0 0 0 -31.23 3.312 7.623 7.623 0 0 1 .751.744 6.408 6.408 0 0 1 1.669-.225z" fill="#323c6b"/><path d="m65.33 47.6a9.486 9.486 0 0 0 .15-1.69 9.619 9.619 0 0 0 -6.35-9.06 22.878 22.878 0 0 0 -44.62 1.62 7.431 7.431 0 0 0 -6.28 6.59c-.07-.79-.11-1.6-.11-2.41a28.88 28.88 0 0 1 57.76 0 26.989 26.989 0 0 1 -.55 4.95z" fill="#ef5261"/><path d="m65.331 48.1a.476.476 0 0 1 -.091-.008.5.5 0 0 1 -.4-.581 8.993 8.993 0 0 0 .143-1.6 9.139 9.139 0 0 0 -6.02-8.589.5.5 0 0 1 -.314-.344 22.379 22.379 0 0 0 -43.649 1.583.5.5 0 0 1 -.416.4 6.908 6.908 0 0 0 -5.856 6.145.5.5 0 0 1 -.5.451.5.5 0 0 1 -.5-.456c-.074-.837-.112-1.664-.112-2.455a29.38 29.38 0 0 1 58.76 0 27.687 27.687 0 0 1 -.559 5.042.5.5 0 0 1 -.486.412zm-5.785-11.628a10.123 10.123 0 0 1 5.833 6 28.38 28.38 0 0 0 -56.753-.409 7.94 7.94 0 0 1 5.458-4.029 23.378 23.378 0 0 1 45.462-1.564z" fill="#323c6b"/><path d="m49.255 20.724c.013-.014.026-.03.039-.046a.762.762 0 0 0 -.125-1.071 3.518 3.518 0 0 0 -.626-.443.762.762 0 0 0 -.809 1.292 2.416 2.416 0 0 1 .49.347.762.762 0 0 0 1.031-.079z" fill="#eeefee"/><path d="m46.236 19.116a.763.763 0 0 0 -.1-1.251 14.207 14.207 0 0 0 -9.621-1.558.762.762 0 0 0 .218 1.509 12.791 12.791 0 0 1 8.636 1.366.763.763 0 0 0 .867-.066z" fill="#eeefee"/></g></svg>