<svg height="512" viewBox="0 0 74 74" width="512" xmlns="http://www.w3.org/2000/svg"><g id="line_color" data-name="line color"><g fill="#323c6b"><path d="m27.813 7.836a.5.5 0 0 1 -.448-.722l3.626-7.336a.5.5 0 0 1 .448-.278h5.4a.5.5 0 0 1 .5.5.5.5 0 0 1 -.5.5h-5.089l-3.488 7.058a.5.5 0 0 1 -.449.278z"/><path d="m26.242 11.172a.5.5 0 0 1 -.448-.722l.458-.926a.5.5 0 0 1 .9.443l-.458.926a.5.5 0 0 1 -.452.279z"/><path d="m50.023 46.52a.5.5 0 0 1 -.379-.826l.313-.363a.5.5 0 1 1 .758.652l-.312.363a.5.5 0 0 1 -.38.174z"/><path d="m52.335 43.835a.5.5 0 0 1 -.379-.826l6.437-7.473h-5.453a.5.5 0 0 1 0-1h6.544a.5.5 0 0 1 .379.826l-7.149 8.3a.5.5 0 0 1 -.379.173z"/></g><path d="m33.303 3h19.967l-9.983 14.881h11.678l-13.75 20.155h11.725l-28.396 32.964 7.77-22.18h-9.465l9.889-16.953h-13.703z" fill="#fed19a"/><path d="m24.544 71.5a.5.5 0 0 1 -.471-.666l7.536-21.514h-8.76a.5.5 0 0 1 -.432-.752l9.451-16.2h-12.833a.5.5 0 0 1 -.448-.722l14.268-28.868a.5.5 0 0 1 .445-.278h19.97a.5.5 0 0 1 .415.778l-9.461 14.1h10.741a.5.5 0 0 1 .413.782l-13.217 19.376h10.779a.5.5 0 0 1 .379.826l-28.4 32.964a.5.5 0 0 1 -.375.174zm-.824-23.18h8.595a.5.5 0 0 1 .472.666l-6.9 19.687 25.963-30.137h-10.635a.5.5 0 0 1 -.413-.782l13.217-19.373h-10.732a.5.5 0 0 1 -.415-.778l9.461-14.103h-18.719l-13.775 27.867h12.9a.5.5 0 0 1 .432.752z" fill="#323c6b"/><g fill="#f4bb87"><path d="m43.037 18.229 10.233-15.229h-4l-10.233 15.229z"/><path d="m36.84 38.396h4l14.125-20.515h-4z"/><path d="m27.286 63.174-2.742 7.826 28.396-32.964h-4z"/></g><path d="m24.544 71.5a.5.5 0 0 1 -.471-.666l7.536-21.514h-8.76a.5.5 0 0 1 -.432-.752l9.451-16.2h-12.833a.5.5 0 0 1 -.448-.722l14.268-28.868a.5.5 0 0 1 .445-.278h19.97a.5.5 0 0 1 .415.778l-9.461 14.1h10.741a.5.5 0 0 1 .413.782l-13.217 19.376h10.779a.5.5 0 0 1 .379.826l-28.4 32.964a.5.5 0 0 1 -.375.174zm-.824-23.18h8.595a.5.5 0 0 1 .472.666l-6.9 19.687 25.963-30.137h-10.635a.5.5 0 0 1 -.413-.782l13.217-19.373h-10.732a.5.5 0 0 1 -.415-.778l9.461-14.103h-18.719l-13.775 27.867h12.9a.5.5 0 0 1 .432.752z" fill="#323c6b"/><path d="m22.955 27.812 3.445-6.866a.7.7 0 0 1 .912-.386.7.7 0 0 1 .236.961l-3.448 6.866a.7.7 0 0 1 -.912.386.7.7 0 0 1 -.233-.961z" fill="#eeefee"/><path d="m27.584 18.579.181-.361a.7.7 0 0 1 .912-.386.7.7 0 0 1 .236.961l-.181.361a.7.7 0 0 1 -.912.386.7.7 0 0 1 -.236-.961z" fill="#eeefee"/></g></svg>