<svg height="512" viewBox="0 0 74 74" width="512" xmlns="http://www.w3.org/2000/svg"><g id="line_color" data-name="line color"><path d="m67.63 37.41c-4.083-2.95-8.03-2.81-11.86 0 0-8.45-2.1-16.11-5.5-21.66-3.28-5.37-7.8-8.75-12.79-8.96.47 0 .93.02 1.4.05a30.621 30.621 0 0 1 28.75 30.57z" fill="#69b0ee"/><path d="m67.63 37.91a.5.5 0 0 1 -.293-.095c-3.822-2.762-7.509-2.763-11.271 0a.5.5 0 0 1 -.8-.4c0-8.087-1.927-15.687-5.426-21.4-3.311-5.432-7.71-8.529-12.381-8.725a.5.5 0 0 1 .021-1c.481 0 .951.021 1.432.051a31.121 31.121 0 0 1 29.218 31.069.5.5 0 0 1 -.5.5zm-24.408-29.984a20.666 20.666 0 0 1 7.478 7.563c3.457 5.643 5.42 13.061 5.564 20.978a9.454 9.454 0 0 1 10.854-.008 30.132 30.132 0 0 0 -23.896-28.533z" fill="#323c6b"/><path d="m55.66 15.75a30.577 30.577 0 0 1 8.925 20.018 12.2 12.2 0 0 1 3.045 1.642 30.621 30.621 0 0 0 -28.75-30.57c-.47-.03-.93-.05-1.4-.05a12.165 12.165 0 0 1 4.229.973 30.625 30.625 0 0 1 13.951 7.987z" fill="#419be9"/><path d="m9.424 18.647a.5.5 0 0 1 -.409-.787 34.266 34.266 0 0 1 8.935-8.77.5.5 0 1 1 .559.829 33.276 33.276 0 0 0 -8.675 8.516.5.5 0 0 1 -.41.212z" fill="#323c6b"/><path d="m7.26 22.178a.5.5 0 0 1 -.233-.058.5.5 0 0 1 -.208-.676q.232-.438.478-.869a.5.5 0 1 1 .869.494q-.238.418-.463.843a.5.5 0 0 1 -.443.266z" fill="#323c6b"/><path d="m36.52 6.79c-4.99.21-9.51 3.59-12.79 8.96-3.4 5.55-5.5 13.21-5.5 21.66-4.272-2.626-8.244-2.461-11.86 0a30.621 30.621 0 0 1 28.75-30.57c.47-.03.93-.05 1.4-.05z" fill="#69b0ee"/><path d="m6.37 37.91a.5.5 0 0 1 -.5-.5 31.12 31.12 0 0 1 29.22-31.069c.479-.03.949-.051 1.43-.051a.5.5 0 0 1 .021 1c-4.671.2-9.07 3.294-12.384 8.721-3.5 5.712-5.427 13.312-5.427 21.4a.5.5 0 0 1 -.762.426c-3.952-2.429-7.759-2.433-11.317-.012a.5.5 0 0 1 -.281.085zm5.778-2.91a11.637 11.637 0 0 1 5.589 1.55c.133-7.946 2.1-15.4 5.566-21.058a20.67 20.67 0 0 1 7.474-7.563 30.132 30.132 0 0 0 -23.893 28.566 10.327 10.327 0 0 1 5.264-1.495z" fill="#323c6b"/><path d="m55.77 37.41c-4.059-2.467-8.006-2.626-11.82 0a103.459 103.459 0 0 0 -2.03-21.66c-1.26-5.54-3-8.97-4.92-8.97.16 0 .32 0 .48.01 4.99.21 9.51 3.59 12.79 8.96 3.4 5.55 5.5 13.21 5.5 21.66z" fill="#eeefee"/><path d="m43.95 37.91a.5.5 0 0 1 -.5-.5 102.835 102.835 0 0 0 -2.018-21.55c-1.222-5.372-2.878-8.58-4.432-8.58a.5.5 0 0 1 0-1c.171 0 .341 0 .512.011 5 .21 9.691 3.478 13.185 9.2 3.594 5.867 5.573 13.652 5.573 21.921a.5.5 0 0 1 -.76.427c-4.038-2.455-7.727-2.46-11.276-.016a.5.5 0 0 1 -.284.087zm5.724-2.91a11.743 11.743 0 0 1 5.588 1.539c-.133-7.762-2.045-15.024-5.419-20.532-2.904-4.752-6.643-7.718-10.663-8.507 1.5 1.765 2.548 5.155 3.228 8.144a102.345 102.345 0 0 1 2.04 20.86 10.164 10.164 0 0 1 5.226-1.504z" fill="#323c6b"/><path d="m37 6.78c-1.92 0-3.66 3.43-4.92 8.97a103.459 103.459 0 0 0 -2.03 21.66c-3.95-2.668-7.882-2.423-11.82 0 0-8.45 2.1-16.11 5.5-21.66 3.28-5.37 7.8-8.75 12.79-8.96.16-.01.32-.01.48-.01z" fill="#eeefee"/><path d="m18.23 37.91a.5.5 0 0 1 -.5-.5c0-8.269 1.979-16.054 5.574-21.921 3.494-5.72 8.18-8.987 13.2-9.2.16-.01.33-.011.5-.011a.5.5 0 0 1 0 1c-1.554 0-3.21 3.208-4.432 8.581a102.819 102.819 0 0 0 -2.022 21.551.5.5 0 0 1 -.78.415c-3.611-2.439-7.3-2.436-11.278.011a.5.5 0 0 1 -.262.074zm16.589-30.41c-4.027.8-7.76 3.763-10.662 8.515-3.374 5.507-5.286 12.767-5.419 20.528a10.41 10.41 0 0 1 10.815-.031 102.336 102.336 0 0 1 2.04-20.867c.679-2.993 1.728-6.383 3.226-8.145z" fill="#323c6b"/><path d="m43.95 37.41a15.117 15.117 0 0 0 -4.97-1.75 12.527 12.527 0 0 0 -3.96 0 15.117 15.117 0 0 0 -4.97 1.75 103.459 103.459 0 0 1 2.03-21.66c1.26-5.54 3-8.97 4.92-8.97s3.66 3.43 4.92 8.97a103.459 103.459 0 0 1 2.03 21.66z" fill="#69b0ee"/><g fill="#323c6b"><path d="m43.95 37.91a.5.5 0 0 1 -.242-.062 14.67 14.67 0 0 0 -4.808-1.694 12.094 12.094 0 0 0 -3.8 0 14.678 14.678 0 0 0 -4.807 1.694.5.5 0 0 1 -.742-.438 103.853 103.853 0 0 1 2.042-21.77c.971-4.271 2.7-9.36 5.408-9.36s4.437 5.09 5.408 9.359a103.869 103.869 0 0 1 2.041 21.771.5.5 0 0 1 -.5.5zm-6.95-30.63c-1.554 0-3.21 3.208-4.432 8.581a101.4 101.4 0 0 0 -2.016 20.724 15.326 15.326 0 0 1 4.391-1.418 13.075 13.075 0 0 1 4.116 0 15.31 15.31 0 0 1 4.389 1.418 101.422 101.422 0 0 0 -2.016-20.725c-1.222-5.372-2.878-8.58-4.432-8.58z"/><path d="m40.1 70.051a.5.5 0 0 1 -.409-.787 9.837 9.837 0 0 0 1.79-5.674v-2.47a.5.5 0 0 1 1 0v2.47a10.835 10.835 0 0 1 -1.97 6.248.5.5 0 0 1 -.411.213z"/><path d="m41.98 59a.5.5 0 0 1 -.5-.5v-.458a.5.5 0 0 1 1 0v.458a.5.5 0 0 1 -.5.5z"/></g><path d="m38.98 35.66v27.93a7.422 7.422 0 0 1 -8.39 7.35 7.586 7.586 0 0 1 -6.43-7.61v-.23a1.975 1.975 0 1 1 3.95 0v.39a3.513 3.513 0 0 0 2.73 3.48 3.459 3.459 0 0 0 4.18-3.38v-27.93a12.527 12.527 0 0 1 3.96 0z" fill="#bbbbcd"/><path d="m31.547 71.5a7.881 7.881 0 0 1 -7.887-8.17v-.23a2.475 2.475 0 1 1 4.95 0v.39a3.008 3.008 0 0 0 2.33 2.99 2.959 2.959 0 0 0 3.581-2.89v-27.93a.5.5 0 0 1 .421-.494 13.055 13.055 0 0 1 4.117 0 .5.5 0 0 1 .421.494v27.93a7.918 7.918 0 0 1 -7.933 7.91zm-5.417-9.88a1.477 1.477 0 0 0 -1.47 1.48v.23a7.062 7.062 0 0 0 5.994 7.114 6.922 6.922 0 0 0 7.826-6.854v-27.5a12.1 12.1 0 0 0 -2.96 0v27.5a3.959 3.959 0 0 1 -4.782 3.87 4.009 4.009 0 0 1 -3.128-3.97v-.39a1.49 1.49 0 0 0 -.433-1.046 1.47 1.47 0 0 0 -1.047-.434z" fill="#323c6b"/><path d="m25.968 61.138a1.981 1.981 0 0 1 .58 1.4v.39a3.513 3.513 0 0 0 2.73 3.48 3.46 3.46 0 0 0 .349.032 3.608 3.608 0 0 1 -1.517-2.95v-.39a1.98 1.98 0 0 0 -1.98-1.98c-.056 0-.109.012-.164.017z" fill="#9a9eaf"/><path d="m37.417 35.519v27.508a7.422 7.422 0 0 1 -8.39 7.35c-.224-.029-.443-.069-.659-.118a7 7 0 0 0 2.222.681 7.422 7.422 0 0 0 8.39-7.35v-27.93a12.614 12.614 0 0 0 -1.563-.141z" fill="#9a9eaf"/><path d="m67.63 37.91a.5.5 0 0 1 -.293-.095c-3.822-2.762-7.509-2.763-11.271 0a.5.5 0 0 1 -.8-.4c0-8.087-1.927-15.687-5.426-21.4-3.311-5.432-7.71-8.529-12.381-8.725a.5.5 0 0 1 .021-1c.481 0 .951.021 1.432.051a31.121 31.121 0 0 1 29.218 31.069.5.5 0 0 1 -.5.5zm-24.408-29.984a20.666 20.666 0 0 1 7.478 7.563c3.457 5.643 5.42 13.061 5.564 20.978a9.454 9.454 0 0 1 10.854-.008 30.132 30.132 0 0 0 -23.896-28.533z" fill="#323c6b"/><path d="m31.547 71.5a7.881 7.881 0 0 1 -7.887-8.17v-.23a2.475 2.475 0 1 1 4.95 0v.39a3.008 3.008 0 0 0 2.33 2.99 2.959 2.959 0 0 0 3.581-2.89v-27.93a.5.5 0 0 1 .421-.494 13.055 13.055 0 0 1 4.117 0 .5.5 0 0 1 .421.494v27.93a7.918 7.918 0 0 1 -7.933 7.91zm-5.417-9.88a1.477 1.477 0 0 0 -1.47 1.48v.23a7.062 7.062 0 0 0 5.994 7.114 6.922 6.922 0 0 0 7.826-6.854v-27.5a12.1 12.1 0 0 0 -2.96 0v27.5a3.959 3.959 0 0 1 -4.782 3.87 4.009 4.009 0 0 1 -3.128-3.97v-.39a1.49 1.49 0 0 0 -.433-1.046 1.47 1.47 0 0 0 -1.047-.434z" fill="#323c6b"/><path d="m38.877 6.843v-1.966a1.877 1.877 0 1 0 -3.754 0v1.966" fill="#bbbbcd"/><path d="m38.877 7.343a.5.5 0 0 1 -.5-.5v-1.966a1.377 1.377 0 0 0 -2.754 0v1.966a.5.5 0 0 1 -1 0v-1.966a2.377 2.377 0 1 1 4.754 0v1.966a.5.5 0 0 1 -.5.5z" fill="#323c6b"/><g fill="#eeefee"><path d="m18.4 18.434c-.013-.016-.027-.031-.041-.046a.789.789 0 0 0 -1.116-.018 3.643 3.643 0 0 0 -.54.582.789.789 0 0 0 1.215 1.007 2.5 2.5 0 0 1 .423-.455.79.79 0 0 0 .059-1.07z"/><path d="m16.317 20.9a.791.791 0 0 0 -1.282-.21c-3.866 4.01-4.935 10.329-4.953 10.542a.79.79 0 0 0 1.572.152c0-.047 1.046-5.995 4.517-9.594a.79.79 0 0 0 .146-.89z"/></g></g></svg>