<svg height="512" viewBox="0 0 74 74" width="512" xmlns="http://www.w3.org/2000/svg"><g id="line_color" data-name="line color"><path d="m10.119 63.819a.5.5 0 0 1 -.285-.089 20.465 20.465 0 0 1 -7.034-8.486.5.5 0 0 1 .914-.407 19.46 19.46 0 0 0 6.686 8.072.5.5 0 0 1 -.285.911z" fill="#323c6b"/><path d="m13.157 65.6a.5.5 0 0 1 -.205-.044q-.467-.21-.922-.442a.5.5 0 0 1 .455-.891q.432.22.877.42a.5.5 0 0 1 -.205.956z" fill="#323c6b"/><path d="m38.291 46.989a16.872 16.872 0 0 1 -33.743 0c0-9.321 16.872-34.665 16.872-34.665s16.871 25.344 16.871 34.665z" fill="#b6d2dd"/><path d="m21.419 64.351a17.386 17.386 0 0 1 -17.371-17.362c0-9.365 16.263-33.9 16.955-34.942a.518.518 0 0 1 .832 0c.692 1.04 16.956 25.578 16.956 34.942a17.387 17.387 0 0 1 -17.372 17.362zm0-51.116c-2.591 3.974-16.371 25.5-16.371 33.754a16.372 16.372 0 0 0 32.743 0c0-8.254-13.781-29.78-16.372-33.754z" fill="#323c6b"/><path d="m21.419 12.324s-.648.975-1.683 2.6c4.621 7.327 14.555 23.912 14.555 31.067a16.782 16.782 0 0 1 -18.921 16.723 16.839 16.839 0 0 0 22.921-15.725c0-9.321-16.872-34.665-16.872-34.665z" fill="#acc6cc"/><g fill="#323c6b"><path d="m21.419 56.825a.5.5 0 1 1 0-1 8.851 8.851 0 0 0 8.847-8.836.5.5 0 0 1 1 0 9.852 9.852 0 0 1 -9.847 9.836z"/><path d="m21.419 64.351a17.386 17.386 0 0 1 -17.371-17.362c0-9.365 16.263-33.9 16.955-34.942a.518.518 0 0 1 .832 0c.692 1.04 16.956 25.578 16.956 34.942a17.387 17.387 0 0 1 -17.372 17.362zm0-51.116c-2.591 3.974-16.371 25.5-16.371 33.754a16.372 16.372 0 0 0 32.743 0c0-8.254-13.781-29.78-16.372-33.754z"/><path d="m69.453 16.688a.5.5 0 0 1 -.453-.288l-.328-.682a.5.5 0 0 1 .9-.439q.17.347.334.694a.5.5 0 0 1 -.452.714z"/><path d="m68.051 13.881a.5.5 0 0 1 -.443-.269c-1.182-2.261-2.578-4.712-4.146-7.273a.5.5 0 0 1 .854-.521c1.584 2.582 2.984 5.05 4.178 7.331a.5.5 0 0 1 -.443.731z"/></g><path d="m69.453 25.765a11.08 11.08 0 0 1 -22.16 0c0-6.121 11.08-22.765 11.08-22.765s11.08 16.644 11.08 22.765z" fill="#b6d2dd"/><path d="m58.373 37.338a11.59 11.59 0 0 1 -11.58-11.573c0-6.2 10.708-22.357 11.164-23.042a.518.518 0 0 1 .832 0c.456.685 11.163 16.84 11.163 23.042a11.589 11.589 0 0 1 -11.579 11.573zm0-33.425c-2.008 3.094-10.58 16.616-10.58 21.852a10.58 10.58 0 0 0 21.159 0c0-5.236-8.571-18.758-10.579-21.852z" fill="#323c6b"/><path d="m58.373 3s-.539.809-1.373 2.134c3.276 5.34 8.457 14.445 8.457 18.631a11.043 11.043 0 0 1 -13.937 10.689 11.069 11.069 0 0 0 17.933-8.689c0-6.121-11.08-22.765-11.08-22.765z" fill="#acc6cc"/><path d="m62.695 63.3a7.7 7.7 0 0 1 -15.4 0c0-4.255 7.7-15.823 7.7-15.823s7.7 11.572 7.7 15.823z" fill="#b6d2dd"/><path d="m54.994 71.5a8.208 8.208 0 0 1 -8.2-8.2c0-4.356 7.467-15.623 7.785-16.1a.518.518 0 0 1 .832 0c.318.477 7.785 11.744 7.785 16.1a8.208 8.208 0 0 1 -8.202 8.2zm0-23.1c-1.592 2.467-7.2 11.41-7.2 14.908a7.2 7.2 0 0 0 14.4 0c.006-3.502-5.608-12.445-7.2-14.908z" fill="#323c6b"/><path d="m54.994 47.481s-.709 1.066-1.7 2.666c2.269 3.765 5.4 9.445 5.4 12.157a7.7 7.7 0 0 1 -7.5 7.687 7.693 7.693 0 0 0 11.5-6.687c.001-4.255-7.7-15.823-7.7-15.823z" fill="#acc6cc"/><path d="m58.373 37.338a11.59 11.59 0 0 1 -11.58-11.573c0-6.2 10.708-22.357 11.164-23.042a.518.518 0 0 1 .832 0c.456.685 11.163 16.84 11.163 23.042a11.589 11.589 0 0 1 -11.579 11.573zm0-33.425c-2.008 3.094-10.58 16.616-10.58 21.852a10.58 10.58 0 0 0 21.159 0c0-5.236-8.571-18.758-10.579-21.852z" fill="#323c6b"/><path d="m54.994 71.5a8.208 8.208 0 0 1 -8.2-8.2c0-4.356 7.467-15.623 7.785-16.1a.518.518 0 0 1 .832 0c.318.477 7.785 11.744 7.785 16.1a8.208 8.208 0 0 1 -8.202 8.2zm0-23.1c-1.592 2.467-7.2 11.41-7.2 14.908a7.2 7.2 0 0 0 14.4 0c.006-3.502-5.608-12.445-7.2-14.908z" fill="#323c6b"/><g fill="#eeefee"><path d="m8.939 42.368-.07-.012a.9.9 0 0 0 -1.01.775 4.154 4.154 0 0 0 -.07.9.9.9 0 0 0 1.8.039 2.853 2.853 0 0 1 .056-.707.9.9 0 0 0 -.706-.995z"/><path d="m9.123 46.531a.9.9 0 0 0 -1.134.954 13.591 13.591 0 0 0 5.833 9.6.9.9 0 0 0 1.3-1.248 11.9 11.9 0 0 1 -5.339-8.521.9.9 0 0 0 -.66-.785z"/></g></g></svg>