<svg height="512" viewBox="0 0 74 74" width="512" xmlns="http://www.w3.org/2000/svg"><g id="line_color" data-name="line color"><path d="m33.879.584a.5.5 0 0 1 -.5-.475.5.5 0 0 1 .475-.524l.566-.025h.02a.5.5 0 0 1 .02 1l-.56.024z" fill="#323c6b"/><path d="m20.639 2.731a.5.5 0 0 1 -.149-.977 50.53 50.53 0 0 1 10.15-1.936.5.5 0 1 1 .1 1 50.266 50.266 0 0 0 -9.947 1.9.5.5 0 0 1 -.154.013z" fill="#323c6b"/><path d="m60.71 10.97a3.9 3.9 0 0 1 -.05.48c-.72 4.18-10.89 7.49-23.32 7.49-12.94 0-23.41-3.57-23.41-7.97s10.47-7.97 23.41-7.97c12.9 0 23.37 3.57 23.37 7.97z" fill="#dbd8dd"/><path d="m37.34 19.44c-13.407 0-23.91-3.721-23.91-8.47s10.503-8.47 23.91-8.47c13.385 0 23.87 3.72 23.87 8.47v.03a4.593 4.593 0 0 1 -.057.54c-.777 4.502-11.014 7.9-23.813 7.9zm0-15.94c-12.419 0-22.91 3.421-22.91 7.47s10.491 7.47 22.91 7.47c11.914 0 22.155-3.174 22.827-7.075a3.153 3.153 0 0 0 .043-.41c-.025-4.042-10.488-7.455-22.87-7.455z" fill="#323c6b"/><path d="m37.34 3c-9.332 0-17.378 1.857-21.14 4.543a52.167 52.167 0 0 1 17.14-2.543c12.9 0 23.37 3.57 23.37 7.97a3.9 3.9 0 0 1 -.05.48 4.88 4.88 0 0 1 -2.2 2.935c3.57-1.312 5.874-3.031 6.2-4.935a3.9 3.9 0 0 0 .05-.48c0-4.4-10.47-7.97-23.37-7.97z" fill="#bbbbcd"/><g fill="#323c6b"><path d="m37.333 14.97c-6.983 0-14.405-1.629-14.405-4.649a.5.5 0 0 1 1 0c0 1.726 5.5 3.649 13.405 3.649s13.386-1.923 13.386-3.649a.5.5 0 0 1 1 0c0 3.02-7.412 4.649-14.386 4.649z"/><path d="m15.066 52.907a.5.5 0 0 1 -.465-.314c-.1-.245-.188-.493-.275-.744a.5.5 0 1 1 .945-.326q.122.354.26.7a.5.5 0 0 1 -.465.686z"/><path d="m22.395 60.959a.5.5 0 0 1 -.238-.06 16.512 16.512 0 0 1 -6.406-6 .5.5 0 1 1 .855-.517 15.525 15.525 0 0 0 6.027 5.634.5.5 0 0 1 -.238.94z"/><path d="m45.511 40.858a.5.5 0 0 1 -.272-.919c.207-.135.417-.274.628-.416a.5.5 0 1 1 .559.829q-.322.218-.642.425a.5.5 0 0 1 -.273.081z"/><path d="m49.053 38.317a.5.5 0 0 1 -.31-.893 40.4 40.4 0 0 0 8.764-9.418.5.5 0 1 1 .834.551 41.394 41.394 0 0 1 -8.979 9.652.5.5 0 0 1 -.309.108z"/></g><path d="m33.4 47.15c-.4 2.9.14 6.72 3.92 10.41 7.57 7.38-1.37 13.44-1.37 13.44s-2.37-7.91-12.13-13.18a12.526 12.526 0 0 1 -6.45-7.98 13.67 13.67 0 0 1 1.56-10.23l.52-.92a13.068 13.068 0 0 0 -2.05-15.26 21.906 21.906 0 0 1 -3.47-4.49c-1.45-3.04 0-7.97 0-7.97 0 4.4 10.47 7.97 23.41 7.97 12.43 0 22.6-3.31 23.32-7.49-1.56 17.98-16.25 26.68-22.6 29.62a8.044 8.044 0 0 0 -4.66 6.08z" fill="#eeefee"/><path d="m35.95 71.5a.509.509 0 0 1 -.167-.029.5.5 0 0 1 -.312-.327c-.023-.077-2.443-7.784-11.889-12.884a13.021 13.021 0 0 1 -6.7-8.291 14.068 14.068 0 0 1 1.618-10.607l.52-.918a12.6 12.6 0 0 0 -1.979-14.671 21.663 21.663 0 0 1 -3.557-4.615c-1.516-3.179-.091-8.12-.029-8.329a.5.5 0 0 1 .979.141c0 4.049 10.491 7.47 22.91 7.47 11.914 0 22.155-3.174 22.827-7.075a.505.505 0 0 1 .558-.411.5.5 0 0 1 .434.54c-1.586 18.273-16.534 27.088-22.888 30.03a7.578 7.578 0 0 0 -4.375 5.694c-.509 3.684.762 7.043 3.774 9.984 2.316 2.259 3.382 4.642 3.165 7.082-.374 4.217-4.432 7.013-4.6 7.13a.5.5 0 0 1 -.289.086zm-21.928-58.609c-.276 1.648-.469 4.1.358 5.834a20.812 20.812 0 0 0 3.385 4.364 13.612 13.612 0 0 1 2.12 15.847l-.521.921a13.075 13.075 0 0 0 -1.512 9.855 12.048 12.048 0 0 0 6.205 7.669c8.287 4.475 11.323 10.75 12.132 12.806 1.062-.873 3.4-3.1 3.649-6 .187-2.124-.778-4.234-2.868-6.272-4.052-3.955-4.448-8.076-4.066-10.836a8.586 8.586 0 0 1 4.944-6.465c5.906-2.735 19.426-10.667 22.013-26.778-3.24 3.312-12.019 5.6-22.522 5.6-11.539.004-20.922-2.751-23.317-6.545z" fill="#323c6b"/><path d="m33.34 18.94c.657 0 1.3-.014 1.946-.032-11.975-.355-21.356-3.773-21.356-7.938a18.525 18.525 0 0 0 -.637 4.118c4.098 2.312 11.538 3.852 20.047 3.852z" fill="#dbd8dd"/><path d="m38.06 41.07c6.35-2.94 21.04-11.64 22.6-29.62-.278 1.615-1.978 3.1-4.661 4.311-3.3 15.078-16.12 22.615-21.939 25.309a8.044 8.044 0 0 0 -4.66 6.08c-.4 2.9.14 6.72 3.92 10.41 4.462 4.35 3.187 8.241 1.388 10.7a15.538 15.538 0 0 1 1.242 2.74s8.94-6.06 1.37-13.44c-3.78-3.69-4.32-7.51-3.92-10.41a8.044 8.044 0 0 1 4.66-6.08z" fill="#dbd8dd"/><path d="m35.95 71.5a.509.509 0 0 1 -.167-.029.5.5 0 0 1 -.312-.327c-.023-.077-2.443-7.784-11.889-12.884a13.021 13.021 0 0 1 -6.7-8.291 14.068 14.068 0 0 1 1.618-10.607l.52-.918a12.6 12.6 0 0 0 -1.979-14.671 21.663 21.663 0 0 1 -3.557-4.615c-1.516-3.179-.091-8.12-.029-8.329a.5.5 0 0 1 .979.141c0 4.049 10.491 7.47 22.91 7.47 11.914 0 22.155-3.174 22.827-7.075a.505.505 0 0 1 .558-.411.5.5 0 0 1 .434.54c-1.586 18.273-16.534 27.088-22.888 30.03a7.578 7.578 0 0 0 -4.375 5.694c-.509 3.684.762 7.043 3.774 9.984 2.316 2.259 3.382 4.642 3.165 7.082-.374 4.217-4.432 7.013-4.6 7.13a.5.5 0 0 1 -.289.086zm-21.928-58.609c-.276 1.648-.469 4.1.358 5.834a20.812 20.812 0 0 0 3.385 4.364 13.612 13.612 0 0 1 2.12 15.847l-.521.921a13.075 13.075 0 0 0 -1.512 9.855 12.048 12.048 0 0 0 6.205 7.669c8.287 4.475 11.323 10.75 12.132 12.806 1.062-.873 3.4-3.1 3.649-6 .187-2.124-.778-4.234-2.868-6.272-4.052-3.955-4.448-8.076-4.066-10.836a8.586 8.586 0 0 1 4.944-6.465c5.906-2.735 19.426-10.667 22.013-26.778-3.24 3.312-12.019 5.6-22.522 5.6-11.539.004-20.922-2.751-23.317-6.545z" fill="#323c6b"/><path d="m37.34 19.44c-13.407 0-23.91-3.721-23.91-8.47s10.503-8.47 23.91-8.47c13.385 0 23.87 3.72 23.87 8.47v.03a4.593 4.593 0 0 1 -.057.54c-.777 4.502-11.014 7.9-23.813 7.9zm0-15.94c-12.419 0-22.91 3.421-22.91 7.47s10.491 7.47 22.91 7.47c11.914 0 22.155-3.174 22.827-7.075a3.153 3.153 0 0 0 .043-.41c-.025-4.042-10.488-7.455-22.87-7.455z" fill="#323c6b"/><g fill="#dbd8dd"><path d="m21.032 41.537-.049-.022a.684.684 0 0 0 -.887.386 3.158 3.158 0 0 0 -.218.653.684.684 0 1 0 1.32.359 2.168 2.168 0 0 1 .171-.511.684.684 0 0 0 -.337-.865z"/><path d="m20.4 44.641a.685.685 0 0 0 -1.011.5 10.33 10.33 0 0 0 2.539 8.151.684.684 0 0 0 1.187-.682 9.046 9.046 0 0 1 -2.373-7.265.685.685 0 0 0 -.342-.704z"/></g></g></svg>