<svg height="512" viewBox="0 0 74 74" width="512" xmlns="http://www.w3.org/2000/svg"><g id="line_color" data-name="line color"><path d="m73.42 47.5a.5.5 0 0 1 -.5-.5v-.625a.5.5 0 0 1 1 0v.625a.5.5 0 0 1 -.5.5z" fill="#323c6b"/><path d="m73.42 43.583a.5.5 0 0 1 -.5-.5v-10.333a.5.5 0 0 1 1 0v10.333a.5.5 0 0 1 -.5.5z" fill="#323c6b"/><path d="m70.42 25.75v43.28a1.974 1.974 0 0 1 -1.97 1.97h-62.9a1.974 1.974 0 0 1 -1.97-1.97v-43.28z" fill="#eeefee"/><path d="m68.45 71.5h-62.9a2.473 2.473 0 0 1 -2.47-2.47v-43.28a.5.5 0 0 1 .5-.5h66.84a.5.5 0 0 1 .5.5v43.28a2.473 2.473 0 0 1 -2.47 2.47zm-64.37-45.25v42.78a1.472 1.472 0 0 0 1.47 1.47h62.9a1.472 1.472 0 0 0 1.47-1.47v-42.78z" fill="#323c6b"/><path d="m67.42 25.75v43.28a1.974 1.974 0 0 1 -1.97 1.97h3a1.974 1.974 0 0 0 1.97-1.97v-43.28z" fill="#dbd8dd"/><path d="m.58 16.375a.5.5 0 0 1 -.5-.5v-4.335a5.477 5.477 0 0 1 5.47-5.47.5.5 0 0 1 0 1 4.475 4.475 0 0 0 -4.47 4.47v4.335a.5.5 0 0 1 -.5.5z" fill="#323c6b"/><path d="m.58 19.875a.5.5 0 0 1 -.5-.5v-.5a.5.5 0 0 1 1 0v.5a.5.5 0 0 1 -.5.5z" fill="#323c6b"/><path d="m70.42 11.54v14.21h-66.84v-14.21a1.98 1.98 0 0 1 1.97-1.97h7.87v5.6a.982.982 0 0 0 .98.98h6.39a.982.982 0 0 0 .98-.98v-5.6h30.46v5.6a.982.982 0 0 0 .98.98h6.39a.982.982 0 0 0 .98-.98v-5.6h7.87a1.98 1.98 0 0 1 1.97 1.97z" fill="#b1dcc1"/><path d="m70.42 26.25h-66.84a.5.5 0 0 1 -.5-.5v-14.21a2.473 2.473 0 0 1 2.47-2.47h7.87a.5.5 0 0 1 .5.5v5.6a.481.481 0 0 0 .48.48h6.39a.48.48 0 0 0 .479-.48v-5.6a.5.5 0 0 1 .5-.5h30.461a.5.5 0 0 1 .5.5v5.6a.48.48 0 0 0 .479.48h6.391a.481.481 0 0 0 .48-.48v-5.6a.5.5 0 0 1 .5-.5h7.87a2.473 2.473 0 0 1 2.47 2.47v14.21a.5.5 0 0 1 -.5.5zm-66.34-1h65.84v-13.71a1.472 1.472 0 0 0 -1.47-1.47h-7.37v5.1a1.482 1.482 0 0 1 -1.48 1.48h-6.39a1.482 1.482 0 0 1 -1.479-1.48v-5.1h-29.461v5.1a1.482 1.482 0 0 1 -1.479 1.48h-6.391a1.482 1.482 0 0 1 -1.48-1.48v-5.1h-7.37a1.472 1.472 0 0 0 -1.47 1.47z" fill="#323c6b"/><path d="m68.45 9.57h-3a1.98 1.98 0 0 1 1.97 1.97v14.21h3v-14.21a1.98 1.98 0 0 0 -1.97-1.97z" fill="#9dceb2"/><rect fill="#dbd8dd" height="13.15" rx=".98" width="8.35" x="13.42" y="3"/><path d="m20.79 16.65h-6.39a1.482 1.482 0 0 1 -1.48-1.48v-11.19a1.482 1.482 0 0 1 1.48-1.48h6.39a1.482 1.482 0 0 1 1.48 1.48v11.19a1.482 1.482 0 0 1 -1.48 1.48zm-6.39-13.15a.481.481 0 0 0 -.48.48v11.19a.481.481 0 0 0 .48.48h6.39a.48.48 0 0 0 .479-.48v-11.19a.48.48 0 0 0 -.479-.48z" fill="#323c6b"/><path d="m20.79 3h-2a.982.982 0 0 1 .98.98v11.19a.982.982 0 0 1 -.98.98h2a.982.982 0 0 0 .98-.98v-11.19a.982.982 0 0 0 -.98-.98z" fill="#bbbbcd"/><rect fill="#dbd8dd" height="13.15" rx=".98" width="8.35" x="52.23" y="3"/><path d="m59.6 16.65h-6.39a1.482 1.482 0 0 1 -1.479-1.48v-11.19a1.482 1.482 0 0 1 1.479-1.48h6.39a1.482 1.482 0 0 1 1.48 1.48v11.19a1.482 1.482 0 0 1 -1.48 1.48zm-6.39-13.15a.48.48 0 0 0 -.479.48v11.19a.48.48 0 0 0 .479.48h6.39a.481.481 0 0 0 .48-.48v-11.19a.481.481 0 0 0 -.48-.48z" fill="#323c6b"/><path d="m59.6 3h-2a.982.982 0 0 1 .98.98v11.19a.982.982 0 0 1 -.98.98h2a.982.982 0 0 0 .98-.98v-11.19a.982.982 0 0 0 -.98-.98z" fill="#bbbbcd"/><g fill="#323c6b"><path d="m59.6 16.65h-6.39a1.482 1.482 0 0 1 -1.479-1.48v-11.19a1.482 1.482 0 0 1 1.479-1.48h6.39a1.482 1.482 0 0 1 1.48 1.48v11.19a1.482 1.482 0 0 1 -1.48 1.48zm-6.39-13.15a.48.48 0 0 0 -.479.48v11.19a.48.48 0 0 0 .479.48h6.39a.481.481 0 0 0 .48-.48v-11.19a.481.481 0 0 0 -.48-.48z"/><path d="m20.79 16.65h-6.39a1.482 1.482 0 0 1 -1.48-1.48v-11.19a1.482 1.482 0 0 1 1.48-1.48h6.39a1.482 1.482 0 0 1 1.48 1.48v11.19a1.482 1.482 0 0 1 -1.48 1.48zm-6.39-13.15a.481.481 0 0 0 -.48.48v11.19a.481.481 0 0 0 .48.48h6.39a.48.48 0 0 0 .479-.48v-11.19a.48.48 0 0 0 -.479-.48z"/><path d="m68.45 71.5h-62.9a2.473 2.473 0 0 1 -2.47-2.47v-43.28a.5.5 0 0 1 .5-.5h66.84a.5.5 0 0 1 .5.5v43.28a2.473 2.473 0 0 1 -2.47 2.47zm-64.37-45.25v42.78a1.472 1.472 0 0 0 1.47 1.47h62.9a1.472 1.472 0 0 0 1.47-1.47v-42.78z"/><path d="m70.42 26.25h-66.84a.5.5 0 0 1 -.5-.5v-14.21a2.473 2.473 0 0 1 2.47-2.47h7.87a.5.5 0 0 1 .5.5v5.6a.481.481 0 0 0 .48.48h6.39a.48.48 0 0 0 .479-.48v-5.6a.5.5 0 0 1 .5-.5h30.461a.5.5 0 0 1 .5.5v5.6a.48.48 0 0 0 .479.48h6.391a.481.481 0 0 0 .48-.48v-5.6a.5.5 0 0 1 .5-.5h7.87a2.473 2.473 0 0 1 2.47 2.47v14.21a.5.5 0 0 1 -.5.5zm-66.34-1h65.84v-13.71a1.472 1.472 0 0 0 -1.47-1.47h-7.37v5.1a1.482 1.482 0 0 1 -1.48 1.48h-6.39a1.482 1.482 0 0 1 -1.479-1.48v-5.1h-29.461v5.1a1.482 1.482 0 0 1 -1.479 1.48h-6.391a1.482 1.482 0 0 1 -1.48-1.48v-5.1h-7.37a1.472 1.472 0 0 0 -1.47 1.47z"/></g><path d="m25.616 52.294a6.144 6.144 0 0 1 0-12.266c.083 0 .165 0 .245.006a4.553 4.553 0 0 1 -.245-1.484 4.229 4.229 0 0 1 4.1-4.346 4.062 4.062 0 0 1 3.572 2.217 6.718 6.718 0 0 1 5.747-3.347 7.031 7.031 0 0 1 6.815 7.226c0 .117 0 .234-.008.348a5.514 5.514 0 0 1 2.542-.622 6.144 6.144 0 0 1 0 12.266z" fill="#b6d2dd"/><g fill="#323c6b"><path d="m48.384 52.794h-22.768a6.654 6.654 0 0 1 -.4-13.253 5.141 5.141 0 0 1 -.1-.991 4.733 4.733 0 0 1 4.6-4.846 4.516 4.516 0 0 1 3.584 1.807 7.134 7.134 0 0 1 5.739-2.937 7.513 7.513 0 0 1 7.3 7.313 5.954 5.954 0 0 1 2.044-.359 6.643 6.643 0 0 1 0 13.267zm-22.768-12.266a5.645 5.645 0 0 0 0 11.267h22.768a5.645 5.645 0 0 0 0-11.267 4.984 4.984 0 0 0 -2.312.567.5.5 0 0 1 -.729-.47c0-.106.008-.214.008-.322a6.539 6.539 0 0 0 -6.315-6.729 6.2 6.2 0 0 0 -5.318 3.1.5.5 0 0 1 -.87-.022 3.573 3.573 0 0 0 -3.13-1.951 3.733 3.733 0 0 0 -3.6 3.846 4.039 4.039 0 0 0 .218 1.32.5.5 0 0 1 -.071.461.475.475 0 0 1 -.42.2z"/><path d="m47.929 58.771a.5.5 0 0 1 -.354-.854l1.569-1.569a.5.5 0 0 1 .707.707l-1.569 1.569a.5.5 0 0 1 -.353.147z"/><path d="m40.205 58.771a.5.5 0 0 1 -.354-.854l1.568-1.569a.5.5 0 0 1 .707.707l-1.568 1.569a.5.5 0 0 1 -.353.147z"/><path d="m32.481 58.771a.5.5 0 0 1 -.354-.854l1.573-1.568a.5.5 0 0 1 .707.707l-1.568 1.569a.5.5 0 0 1 -.358.146z"/><path d="m24.757 58.771a.5.5 0 0 1 -.354-.854l1.569-1.569a.5.5 0 0 1 .707.707l-1.569 1.57a.5.5 0 0 1 -.353.146z"/><path d="m50.507 64.1a.5.5 0 0 1 -.354-.854l1.568-1.568a.5.5 0 0 1 .707.707l-1.568 1.568a.5.5 0 0 1 -.353.147z"/><path d="m42.783 64.1a.5.5 0 0 1 -.354-.854l1.571-1.568a.5.5 0 0 1 .707.707l-1.568 1.568a.5.5 0 0 1 -.356.147z"/><path d="m35.059 64.1a.5.5 0 0 1 -.354-.854l1.569-1.568a.5.5 0 0 1 .707.707l-1.569 1.568a.5.5 0 0 1 -.353.147z"/><path d="m27.335 64.1a.5.5 0 0 1 -.354-.854l1.568-1.568a.5.5 0 0 1 .707.707l-1.568 1.568a.5.5 0 0 1 -.353.147z"/></g><path d="m18.687 67.743a.7.7 0 0 1 -.7.7h-1.015a.7.7 0 0 1 0-1.408h1.012a.7.7 0 0 1 .703.708z" fill="#dbd8dd"/><path d="m14.8 67.743a.7.7 0 0 1 -.7.7h-6.91a.7.7 0 0 1 -.7-.7v-5.851a.7.7 0 0 1 1.408 0v5.147h6.2a.7.7 0 0 1 .702.704z" fill="#dbd8dd"/></g></svg>