<svg height="512" viewBox="0 0 74 74" width="512" xmlns="http://www.w3.org/2000/svg"><g id="line_color" data-name="line color"><g fill="#323c6b"><path d="m55.568 54.5a.5.5 0 0 1 -.476-.345l-.118-.363a.5.5 0 1 1 .951-.31l.118.363a.5.5 0 0 1 -.32.63.51.51 0 0 1 -.155.025z"/><path d="m54.742 51.962a.5.5 0 0 1 -.476-.346l-1.993-6.133a.5.5 0 0 1 .182-.559l2.262-1.643a.5.5 0 0 1 .588.81l-1.968 1.429 1.881 5.788a.5.5 0 0 1 -.476.654z"/><path d="m32.583 11.138a.5.5 0 0 1 -.476-.655l.146-.451a.5.5 0 0 1 .951.31l-.146.451a.5.5 0 0 1 -.475.345z"/><path d="m28.768 22.693a.5.5 0 0 1 -.475-.658l2.881-8.679a.5.5 0 0 1 .949.315l-2.881 8.679a.5.5 0 0 1 -.474.343z"/></g><path d="m49.222 44.183 7.556 23.253-19.778-14.376-19.778 14.376 7.556-23.253-19.778-14.366h24.444l7.556-23.253 7.556 23.253h24.444z" fill="#fed19a"/><path d="m56.778 67.936a.5.5 0 0 1 -.294-.1l-19.484-14.158-19.484 14.162a.5.5 0 0 1 -.77-.559l7.444-22.907-19.484-14.152a.5.5 0 0 1 .294-.9h24.081l7.443-22.912a.52.52 0 0 1 .951 0l7.443 22.907h24.082a.5.5 0 0 1 .294.9l-19.484 14.157 7.444 22.908a.5.5 0 0 1 -.476.654zm-19.778-15.376a.5.5 0 0 1 .294.1l18.533 13.466-7.081-21.789a.5.5 0 0 1 .182-.559l18.533-13.46h-22.905a.5.5 0 0 1 -.476-.346l-7.08-21.789-7.08 21.789a.5.5 0 0 1 -.476.346h-22.905l18.533 13.46a.5.5 0 0 1 .182.559l-7.081 21.789 18.533-13.471a.5.5 0 0 1 .294-.095z" fill="#323c6b"/><g fill="#f4bb87"><path d="m35.218 51.16-16.643 12.111-1.353 4.165 20.184-14.686z"/><path d="m41.992 30.313h2.675l-7.667-23.749-1.338 4.116z"/><path d="m69 29.817h-4.377l-18.401 13.366 7.054 21.707 3.502 2.546-7.556-23.253z"/></g><path d="m56.778 67.936a.5.5 0 0 1 -.294-.1l-19.484-14.158-19.484 14.162a.5.5 0 0 1 -.77-.559l7.444-22.907-19.484-14.152a.5.5 0 0 1 .294-.9h24.081l7.443-22.912a.52.52 0 0 1 .951 0l7.443 22.907h24.082a.5.5 0 0 1 .294.9l-19.484 14.157 7.444 22.908a.5.5 0 0 1 -.476.654zm-19.778-15.376a.5.5 0 0 1 .294.1l18.533 13.466-7.081-21.789a.5.5 0 0 1 .182-.559l18.533-13.46h-22.905a.5.5 0 0 1 -.476-.346l-7.08-21.789-7.08 21.789a.5.5 0 0 1 -.476.346h-22.905l18.533 13.46a.5.5 0 0 1 .182.559l-7.081 21.789 18.533-13.471a.5.5 0 0 1 .294-.095z" fill="#323c6b"/><path d="m22.792 40.643-6.248-4.467a.7.7 0 0 1 -.24-.96.7.7 0 0 1 .986-.084l6.248 4.468a.7.7 0 0 1 .24.96.7.7 0 0 1 -.986.083z" fill="#eeefee"/><path d="m14.39 34.636-.328-.235a.7.7 0 0 1 -.24-.96.7.7 0 0 1 .986-.084l.328.235a.7.7 0 0 1 .24.96.7.7 0 0 1 -.986.084z" fill="#eeefee"/></g></svg>