<svg height="512" viewBox="0 0 74 74" width="512" xmlns="http://www.w3.org/2000/svg"><g id="line_color" data-name="line color"><path d="m63.369 47.354a8.232 8.232 0 1 1 -16.465 0h4.459a3.773 3.773 0 1 0 3.779-3.768h-31.235v-4.459h31.235a8.235 8.235 0 0 1 8.227 8.227z" fill="#eeefee"/><path d="m55.142 56.092a8.748 8.748 0 0 1 -8.742-8.738.5.5 0 0 1 .5-.5h4.459a.5.5 0 0 1 .5.5 3.273 3.273 0 1 0 3.279-3.268h-31.231a.5.5 0 0 1 -.5-.5v-4.459a.5.5 0 0 1 .5-.5h31.235a8.732 8.732 0 0 1 0 17.465zm-7.722-8.238a7.732 7.732 0 1 0 7.722-8.227h-30.735v3.459h30.735a4.273 4.273 0 0 1 4.268 4.268 4.274 4.274 0 0 1 -8.519.5z" fill="#323c6b"/><path d="m54.142 41.127a8.212 8.212 0 0 1 7.779 10.887 8.226 8.226 0 0 0 -6.779-12.887h-31.235v2z" fill="#dbd8dd"/><path d="m54.142 53.133a3.722 3.722 0 0 0 3.704-3.133 3.784 3.784 0 0 1 -6.484-2.647h-4.462a8.223 8.223 0 0 0 .255 2h3.2a3.74 3.74 0 0 0 3.787 3.78z" fill="#dbd8dd"/><path d="m11.92 39.128h5.545v4.459h-5.545z" fill="#eeefee"/><path d="m17.466 44.087h-5.546a.5.5 0 0 1 -.5-.5v-4.459a.5.5 0 0 1 .5-.5h5.545a.5.5 0 0 1 .5.5v4.459a.5.5 0 0 1 -.499.5zm-5.045-1h4.545v-3.459h-4.546z" fill="#323c6b"/><path d="m11.92 39.128h5.545v2h-5.545z" fill="#dbd8dd"/><path d="m43.281 59.36a8.232 8.232 0 0 1 -16.465 0h4.459a3.773 3.773 0 0 0 7.547 0 3.78 3.78 0 0 0 -3.779-3.768h-30.7v-4.459h30.7a8.238 8.238 0 0 1 8.238 8.227z" fill="#eeefee"/><path d="m35.043 68.086a8.737 8.737 0 0 1 -8.727-8.727.5.5 0 0 1 .5-.5h4.459a.5.5 0 0 1 .5.5 3.273 3.273 0 0 0 6.547 0 3.277 3.277 0 0 0 -3.279-3.268h-30.7a.5.5 0 0 1 -.5-.5v-4.458a.5.5 0 0 1 .5-.5h30.7a8.727 8.727 0 1 1 0 17.454zm-7.711-8.227a7.732 7.732 0 1 0 7.711-8.227h-30.2v3.459h30.2a4.278 4.278 0 0 1 4.279 4.268 4.275 4.275 0 0 1 -8.519.5z" fill="#323c6b"/><path d="m43.214 60.36a8.18 8.18 0 0 0 -8.171-9.227h-30.7v2h30.7a8.237 8.237 0 0 1 8.171 7.227z" fill="#dbd8dd"/><path d="m35.043 65.127a3.714 3.714 0 0 0 3.63-4.756 3.768 3.768 0 0 1 -7.4-1.011h-4.457a8.192 8.192 0 0 0 .256 2h4.2a3.728 3.728 0 0 0 3.771 3.767z" fill="#dbd8dd"/><g fill="#323c6b"><path d="m55.142 56.092a8.748 8.748 0 0 1 -8.742-8.738.5.5 0 0 1 .5-.5h4.459a.5.5 0 0 1 .5.5 3.273 3.273 0 1 0 3.279-3.268h-31.231a.5.5 0 0 1 -.5-.5v-4.459a.5.5 0 0 1 .5-.5h31.235a8.732 8.732 0 0 1 0 17.465zm-7.722-8.238a7.732 7.732 0 1 0 7.722-8.227h-30.735v3.459h30.735a4.273 4.273 0 0 1 4.268 4.268 4.274 4.274 0 0 1 -8.519.5z"/><path d="m17.466 44.087h-5.546a.5.5 0 0 1 -.5-.5v-4.459a.5.5 0 0 1 .5-.5h5.545a.5.5 0 0 1 .5.5v4.459a.5.5 0 0 1 -.499.5zm-5.045-1h4.545v-3.459h-4.546z"/><path d="m35.043 71.086a.5.5 0 0 1 0-1h.275a.527.527 0 0 1 .515.485.5.5 0 0 1 -.485.515zm-2.437-.267a.52.52 0 0 1 -.109-.012 11.793 11.793 0 0 1 -6.508-4 .5.5 0 0 1 .772-.636 10.784 10.784 0 0 0 5.953 3.664.5.5 0 0 1 -.108.988z"/><path d="m35.043 68.086a8.737 8.737 0 0 1 -8.727-8.727.5.5 0 0 1 .5-.5h4.459a.5.5 0 0 1 .5.5 3.273 3.273 0 0 0 6.547 0 3.277 3.277 0 0 0 -3.279-3.268h-30.7a.5.5 0 0 1 -.5-.5v-4.458a.5.5 0 0 1 .5-.5h30.7a8.727 8.727 0 1 1 0 17.454zm-7.711-8.227a7.732 7.732 0 1 0 7.711-8.227h-30.2v3.459h30.2a4.278 4.278 0 0 1 4.279 4.268 4.275 4.275 0 0 1 -8.519.5z"/></g><path d="m39.5 19.875h-31.311v-4.459h31.311a3.776 3.776 0 0 0 3.771-3.772 3.772 3.772 0 1 0 -7.543 0h-4.464a8.231 8.231 0 1 1 8.236 8.231z" fill="#eeefee"/><path d="m39.5 20.375h-31.312a.5.5 0 0 1 -.5-.5v-4.459a.5.5 0 0 1 .5-.5h31.312a3.275 3.275 0 0 0 3.271-3.272 3.271 3.271 0 1 0 -6.543 0 .5.5 0 0 1 -.5.5h-4.464a.5.5 0 0 1 -.5-.5 8.73 8.73 0 1 1 8.736 8.731zm-30.807-1h30.807a7.731 7.731 0 1 0 -7.715-8.231h3.471a4.272 4.272 0 0 1 8.515.5 4.276 4.276 0 0 1 -4.271 4.272h-30.812z" fill="#323c6b"/><path d="m44.222 4.917a8.219 8.219 0 0 1 -6.722 12.958h-29.311v2h31.311a8.224 8.224 0 0 0 4.722-14.958z" fill="#dbd8dd"/><path d="m39.5 20.375h-31.312a.5.5 0 0 1 -.5-.5v-4.459a.5.5 0 0 1 .5-.5h31.312a3.275 3.275 0 0 0 3.271-3.272 3.271 3.271 0 1 0 -6.543 0 .5.5 0 0 1 -.5.5h-4.464a.5.5 0 0 1 -.5-.5 8.73 8.73 0 1 1 8.736 8.731zm-30.807-1h30.807a7.731 7.731 0 1 0 -7.715-8.231h3.471a4.272 4.272 0 0 1 8.515.5 4.276 4.276 0 0 1 -4.271 4.272h-30.812z" fill="#323c6b"/><path d="m1.5 27.762h6.238v4.459h-6.238z" fill="#eeefee"/><path d="m7.738 32.721h-6.238a.5.5 0 0 1 -.5-.5v-4.459a.5.5 0 0 1 .5-.5h6.238a.5.5 0 0 1 .5.5v4.459a.5.5 0 0 1 -.5.5zm-5.738-1h5.238v-3.459h-5.238z" fill="#323c6b"/><path d="m1.5 27.762h6.238v2h-6.238z" fill="#dbd8dd"/><path d="m13.891 27.762h55.609v4.459h-55.609z" fill="#eeefee"/><path d="m69.5 32.721h-55.609a.5.5 0 0 1 -.5-.5v-4.459a.5.5 0 0 1 .5-.5h55.609a.5.5 0 0 1 .5.5v4.459a.5.5 0 0 1 -.5.5zm-55.109-1h54.609v-3.459h-54.609z" fill="#323c6b"/><path d="m13.891 27.762h55.609v2h-55.609z" fill="#dbd8dd"/><g fill="#323c6b"><path d="m72.5 27.625a.5.5 0 0 1 -.5-.5v-1.863h-5.631a.5.5 0 0 1 0-1h6.131a.5.5 0 0 1 .5.5v2.363a.5.5 0 0 1 -.5.5z"/><path d="m63.5 25.262h-.542a.5.5 0 0 1 0-1h.542a.5.5 0 0 1 0 1z"/><path d="m69.5 32.721h-55.609a.5.5 0 0 1 -.5-.5v-4.459a.5.5 0 0 1 .5-.5h55.609a.5.5 0 0 1 .5.5v4.459a.5.5 0 0 1 -.5.5zm-55.109-1h54.609v-3.459h-54.609z"/><path d="m7.738 32.721h-6.238a.5.5 0 0 1 -.5-.5v-4.459a.5.5 0 0 1 .5-.5h6.238a.5.5 0 0 1 .5.5v4.459a.5.5 0 0 1 -.5.5zm-5.738-1h5.238v-3.459h-5.238z"/></g></g></svg>