<svg height="512" viewBox="0 0 74 74" width="512" xmlns="http://www.w3.org/2000/svg"><g id="line_color" data-name="line color"><g fill="#323c6b"><path d="m50.089 72.561a.5.5 0 0 1 -.224-.947 18.468 18.468 0 0 0 6.13-4.968.5.5 0 1 1 .781.624 19.466 19.466 0 0 1 -6.464 5.238.5.5 0 0 1 -.223.053z"/><path d="m57.946 65.177a.5.5 0 0 1 -.432-.752q.153-.262.3-.531a.5.5 0 1 1 .882.473q-.152.283-.314.562a.5.5 0 0 1 -.436.248z"/><path d="m51.835 13.446a.5.5 0 0 1 -.5-.5v-.4a.5.5 0 0 1 1 0v.4a.5.5 0 0 1 -.5.5z"/><path d="m51.835 10.512a.5.5 0 0 1 -.5-.5 9.529 9.529 0 0 0 -4.083-7.806.5.5 0 1 1 .572-.82 10.529 10.529 0 0 1 4.51 8.626.5.5 0 0 1 -.499.5z"/></g><path d="m57.339 57.176a15.623 15.623 0 1 1 -22.527-15.761v-31.4a7.012 7.012 0 0 1 7.011-7.015 7.012 7.012 0 0 1 7.012 7.012v31.4a15.627 15.627 0 0 1 8.504 15.764z" fill="#eeefee"/><path d="m41.858 71.5a16.12 16.12 0 0 1 -7.546-30.39v-31.1a7.512 7.512 0 0 1 15.023 0v31.1a16.04 16.04 0 0 1 8.5 16.121 16.069 16.069 0 0 1 -15.977 14.269zm-.035-68a6.519 6.519 0 0 0 -6.512 6.512v31.4a.5.5 0 0 1 -.275.447 15.12 15.12 0 1 0 13.574 0 .5.5 0 0 1 -.275-.447v-31.4a6.519 6.519 0 0 0 -6.512-6.512z" fill="#323c6b"/><path d="m48.835 41.415v-31.4a6.962 6.962 0 0 0 -8.012-6.932 7.007 7.007 0 0 1 6.012 6.932v31.4a15.627 15.627 0 0 1 -5.165 29.478c-.294.034-.582.036-.873.053a15.93 15.93 0 0 0 2.873-.053 15.627 15.627 0 0 0 5.165-29.478z" fill="#dbd8dd"/><circle cx="41.818" cy="55.378" fill="#ef5261" r="8.27"/><g fill="#323c6b"><path d="m41.818 64.148a8.77 8.77 0 1 1 8.77-8.77 8.78 8.78 0 0 1 -8.77 8.77zm0-16.541a7.77 7.77 0 1 0 7.77 7.771 7.779 7.779 0 0 0 -7.77-7.77z"/><path d="m41.818 47.608a.5.5 0 0 1 -.5-.5v-35.162a.5.5 0 1 1 1 0v35.162a.5.5 0 0 1 -.5.5z"/><path d="m41.858 71.5a16.12 16.12 0 0 1 -7.546-30.39v-31.1a7.512 7.512 0 0 1 15.023 0v31.1a16.04 16.04 0 0 1 8.5 16.121 16.069 16.069 0 0 1 -15.977 14.269zm-.035-68a6.519 6.519 0 0 0 -6.512 6.512v31.4a.5.5 0 0 1 -.275.447 15.12 15.12 0 1 0 13.574 0 .5.5 0 0 1 -.275-.447v-31.4a6.519 6.519 0 0 0 -6.512-6.512z"/><path d="m69.385 57.716h-6.432a.5.5 0 0 1 0-1h6.433a.5.5 0 0 1 0 1z"/><path d="m69.385 50.857h-3.676a.5.5 0 0 1 0-1h3.676a.5.5 0 0 1 0 1z"/><path d="m69.385 44h-6.432a.5.5 0 0 1 0-1h6.433a.5.5 0 0 1 0 1z"/><path d="m69.385 37.139h-3.676a.5.5 0 0 1 0-1h3.676a.5.5 0 0 1 0 1z"/><path d="m69.385 30.28h-6.432a.5.5 0 0 1 0-1h6.433a.5.5 0 0 1 0 1z"/><path d="m69.385 23.421h-3.676a.5.5 0 0 1 0-1h3.676a.5.5 0 0 1 0 1z"/><path d="m69.385 16.562h-6.432a.5.5 0 0 1 0-1h6.433a.5.5 0 0 1 0 1z"/><path d="m69.385 9.7h-3.676a.5.5 0 0 1 0-1h3.676a.5.5 0 0 1 0 1z"/><path d="m17.321 32.367a.5.5 0 0 1 -.5-.5v-25.412a.5.5 0 0 1 1 0v25.412a.5.5 0 0 1 -.5.5z"/><path d="m17.321 12.314a.5.5 0 0 1 -.354-.146l-3.348-3.349a.5.5 0 0 1 .707-.707l3 3 3-3a.5.5 0 0 1 .707.707l-3.349 3.349a.5.5 0 0 1 -.363.146z"/><path d="m20.669 30.356a.5.5 0 0 1 -.354-.146l-3-3-3 3a.5.5 0 0 1 -.707-.707l3.349-3.349a.5.5 0 0 1 .707 0l3.359 3.346a.5.5 0 0 1 -.354.854z"/><path d="m30.027 19.661h-25.412a.5.5 0 0 1 0-1h25.412a.5.5 0 0 1 0 1z"/><path d="m11.626 25.355a.5.5 0 0 1 -.354-.854l11.39-11.389a.5.5 0 0 1 .707.707l-11.39 11.39a.5.5 0 0 1 -.353.146z"/><path d="m23.016 25.355a.5.5 0 0 1 -.354-.146l-11.39-11.389a.5.5 0 0 1 .707-.707l11.39 11.387a.5.5 0 0 1 -.354.854z"/><path d="m28.016 23.009a.5.5 0 0 1 -.354-.146l-3.349-3.348a.5.5 0 0 1 0-.707l3.349-3.349a.5.5 0 0 1 .707.707l-3 3 3 2.995a.5.5 0 0 1 -.354.854z"/><path d="m6.625 23.009a.5.5 0 0 1 -.354-.854l3-2.995-3-3a.5.5 0 0 1 .707-.707l3.349 3.349a.5.5 0 0 1 0 .707l-3.348 3.354a.5.5 0 0 1 -.354.146z"/></g><path d="m35.8 44.274c-.013-.02-.026-.039-.041-.058a.9.9 0 0 0 -1.262-.167 4.154 4.154 0 0 0 -.688.589.9.9 0 0 0 1.245 1.3 2.853 2.853 0 0 1 .539-.46.9.9 0 0 0 .207-1.204z" fill="#dbd8dd"/><path d="m32.985 47.348a.9.9 0 0 0 -1.476-.127 13.591 13.591 0 0 0 -2.663 10.912.9.9 0 0 0 1.8.036 11.9 11.9 0 0 1 2.25-9.8.9.9 0 0 0 .089-1.021z" fill="#dbd8dd"/></g></svg>