<svg height="512" viewBox="0 0 74 74" width="512" xmlns="http://www.w3.org/2000/svg"><g id="line_color" data-name="line color"><path d="m71 28.42a21.094 21.094 0 0 1 -26.17 11.59l.05-.12c2.9.6 6.14-.36 9.21-2.53a28.944 28.944 0 0 0 9.41-12.19 6.345 6.345 0 0 0 7.5 3.25z" fill="#eeefee"/><path d="m51.622 41.641a21.392 21.392 0 0 1 -6.954-1.158.5.5 0 0 1 -.3-.665l.05-.12a.5.5 0 0 1 .563-.3c2.67.555 5.8-.317 8.819-2.449a28.383 28.383 0 0 0 9.24-11.98.5.5 0 0 1 .429-.3.489.489 0 0 1 .462.247 5.847 5.847 0 0 0 6.96 3.014.506.506 0 0 1 .494.17.5.5 0 0 1 .073.517 21.474 21.474 0 0 1 -11.873 11.508 21.713 21.713 0 0 1 -7.963 1.516zm-3.177-1.247a20.605 20.605 0 0 0 21.7-11.319 6.564 6.564 0 0 1 -6.569-2.86 29.008 29.008 0 0 1 -9.2 11.554 15.031 15.031 0 0 1 -5.931 2.625z" fill="#323c6b"/><path d="m68.42 28.595a20.984 20.984 0 0 1 -20.952 11.418 8.866 8.866 0 0 1 -2.588-.123l-.05.12a21.094 21.094 0 0 0 26.17-11.59 8.149 8.149 0 0 1 -2.58.175z" fill="#dbd8dd"/><g fill="#323c6b"><path d="m44.83 40.51a.514.514 0 0 1 -.147-.022c-.141-.044-.271-.087-.413-.142-.3-.111-.613-.235-.914-.37a.5.5 0 0 1 .378-.925 7.1 7.1 0 0 0 1.234.347.5.5 0 0 1 .374.685l-.05.12a.5.5 0 0 1 -.462.307z"/><path d="m27.548 19.453h-.022a.5.5 0 0 1 -.477-.522 24.547 24.547 0 0 1 2.008-8.67.5.5 0 1 1 .918.4 23.576 23.576 0 0 0 -1.928 8.318.5.5 0 0 1 -.499.474z"/><path d="m27.612 22.6a.5.5 0 0 1 -.5-.458q-.028-.319-.047-.638a.5.5 0 0 1 .469-.529.486.486 0 0 1 .529.469c.013.205.028.41.045.614a.5.5 0 0 1 -.456.54z"/></g><path d="m41.77 38.56-.04.1a21.08 21.08 0 0 1 -9.46-27.01c1.61 2.55 4.08 3.74 7.5 3.25a29.032 29.032 0 0 0 -2.45 15.2c.04.27.08.53.13.79s.1.52.16.77a14.309 14.309 0 0 0 .66 2.16c.07.19.15.37.23.55a11.686 11.686 0 0 0 1.08 1.94 5.59 5.59 0 0 0 .36.49.265.265 0 0 0 .05.06c.11.14.23.28.35.42a9.1 9.1 0 0 0 1.43 1.28z" fill="#eeefee"/><path d="m41.73 39.16a.506.506 0 0 1 -.23-.06 21.58 21.58 0 0 1 -9.687-27.651.5.5 0 0 1 .882-.069c1.547 2.45 3.9 3.465 7.006 3.022a.5.5 0 0 1 .53.693 28.47 28.47 0 0 0 -2.416 14.935c.038.26.077.513.126.767s.1.505.155.746a13.86 13.86 0 0 0 .638 2.093c.07.19.146.361.223.531a11.222 11.222 0 0 0 1.033 1.858 5.091 5.091 0 0 0 .337.458.357.357 0 0 1 .034.048c.142.172.25.3.357.423a8.592 8.592 0 0 0 1.341 1.2.5.5 0 0 1 .176.589l-.039.1a.5.5 0 0 1 -.466.318zm-9.343-26.473a20.59 20.59 0 0 0 6.565 23.584 12.457 12.457 0 0 1 -.909-1.7c-.084-.189-.168-.379-.242-.579a14.96 14.96 0 0 1 -.679-2.224c-.06-.247-.111-.513-.162-.779s-.093-.539-.134-.816a29.1 29.1 0 0 1 2.156-14.687 7.257 7.257 0 0 1 -6.595-2.799z" fill="#323c6b"/><path d="m42.95 39.76a.507.507 0 0 1 -.2-.041c-.252-.109-.491-.226-.732-.343l-.156-.076a4.437 4.437 0 0 1 -.4-.219.5.5 0 0 1 -.2-.6l.039-.1a.5.5 0 0 1 .761-.222 7.24 7.24 0 0 0 1.1.654.5.5 0 0 1 -.219.95z" fill="#323c6b"/><path d="m63.5 25.17a28.944 28.944 0 0 1 -9.41 12.19c-3.07 2.17-6.31 3.13-9.21 2.53a7.613 7.613 0 0 1 -1.32-.37 2.834 2.834 0 0 1 -.31-.12c1.21.53 3.25-1.17 5.57-4.32a71.287 71.287 0 0 0 7.21-13.14c1.69 2.7 4.23 3.68 7.47 3.23z" fill="#ef5261"/><path d="m46.6 40.563a9 9 0 0 1 -1.823-.183 7.992 7.992 0 0 1 -1.393-.391 1.822 1.822 0 0 1 -.247-.093c-.03-.011-.061-.023-.091-.036a.5.5 0 0 1 .388-.922l.032.013c.705.284 2.371-.666 4.949-4.166a70.757 70.757 0 0 0 7.153-13.042.5.5 0 0 1 .883-.066c1.538 2.458 3.815 3.438 6.978 3a.5.5 0 0 1 .527.693 29.394 29.394 0 0 1 -9.582 12.4 13.742 13.742 0 0 1 -7.774 2.793zm-1.3-1.1c2.606.421 5.605-.464 8.5-2.508a28.021 28.021 0 0 0 8.89-11.2 7.255 7.255 0 0 1 -6.562-2.8 70.246 70.246 0 0 1 -6.905 12.417 16.111 16.111 0 0 1 -3.923 4.087z" fill="#323c6b"/><path d="m43.25 39.4c-.1-.04-.2-.09-.3-.14a7.8 7.8 0 0 1 -1.18-.7 9.1 9.1 0 0 1 -1.43-1.28c-.12-.14-.24-.28-.35-.42a.265.265 0 0 1 -.05-.06 5.59 5.59 0 0 1 -.36-.49 11.686 11.686 0 0 1 -1.08-1.94c-.08-.18-.16-.36-.23-.55a14.309 14.309 0 0 1 -.66-2.16c-.06-.25-.11-.51-.16-.77s-.09-.52-.13-.79a29.032 29.032 0 0 1 2.45-15.2c1.83 2.61 4.24 3.84 7.47 3.23a71.566 71.566 0 0 0 -4.65 14.25c-.72 3.85-.55 6.49.66 7.02z" fill="#ef5261"/><path d="m43.25 39.9a.5.5 0 0 1 -.187-.036c-.112-.045-.227-.1-.339-.158a8.116 8.116 0 0 1 -1.25-.742 9.565 9.565 0 0 1 -1.5-1.346c-.137-.158-.262-.3-.376-.45l-.04-.053a5.993 5.993 0 0 1 -.393-.534 12.1 12.1 0 0 1 -1.118-2.01c-.084-.189-.168-.379-.242-.579a14.96 14.96 0 0 1 -.679-2.224c-.06-.247-.111-.513-.162-.779s-.093-.539-.134-.816a29.47 29.47 0 0 1 2.481-15.473.5.5 0 0 1 .868-.089c1.81 2.581 4.094 3.57 6.969 3.026a.5.5 0 0 1 .552.69 70.954 70.954 0 0 0 -4.618 14.145c-.8 4.3-.336 6.16.369 6.469a.5.5 0 0 1 -.2.958zm-2.889-3.369c.142.172.25.3.357.423a8.893 8.893 0 0 0 1.1 1.02 16.333 16.333 0 0 1 .28-5.686 70.408 70.408 0 0 1 4.334-13.541 7.247 7.247 0 0 1 -6.532-2.854 28.09 28.09 0 0 0 -2.085 14.137c.038.26.077.513.126.767s.1.505.155.746a13.86 13.86 0 0 0 .638 2.093c.07.19.146.361.223.531a11.222 11.222 0 0 0 1.033 1.858 5.091 5.091 0 0 0 .337.458.357.357 0 0 1 .034.048z" fill="#323c6b"/><path d="m56.03 21.94a71.287 71.287 0 0 1 -7.21 13.14c-2.32 3.15-4.36 4.85-5.57 4.32s-1.38-3.17-.66-7.02a71.566 71.566 0 0 1 4.65-14.25 10.622 10.622 0 0 0 2.66 2.47 8.594 8.594 0 0 0 2.51 1.08 10.5 10.5 0 0 0 3.62.26z" fill="#eeefee"/><path d="m43.729 40a1.683 1.683 0 0 1 -.681-.14c-1.807-.792-1.515-4.553-.95-7.57a71.911 71.911 0 0 1 4.683-14.357.5.5 0 0 1 .854-.108 10.162 10.162 0 0 0 2.535 2.355 8.094 8.094 0 0 0 2.36 1.016 9.99 9.99 0 0 0 3.454.247.506.506 0 0 1 .45.2.5.5 0 0 1 .055.492 71.754 71.754 0 0 1 -7.265 13.236c-2.264 3.077-4.107 4.629-5.495 4.629zm3.648-20.919a69.528 69.528 0 0 0 -4.3 13.395c-.8 4.3-.336 6.16.369 6.469s2.367-.628 4.968-4.158a69.447 69.447 0 0 0 6.827-12.3 10.671 10.671 0 0 1 -2.96-.323 9.07 9.07 0 0 1 -2.65-1.141 10.823 10.823 0 0 1 -2.253-1.944z" fill="#323c6b"/><path d="m44.83 40.01-8.03 18.53a6.333 6.333 0 0 1 -9.06 2.91 6.467 6.467 0 0 1 -2.45-8.13l.08-.18a1.679 1.679 0 0 1 3.11.04 1.722 1.722 0 0 1 -.02 1.3l-.13.3a3 3 0 0 0 .95 3.65 2.955 2.955 0 0 0 4.42-1.23l8.03-18.54a3.906 3.906 0 0 0 .35.19c.29.14.57.28.87.41.1.05.2.1.3.14a2.834 2.834 0 0 0 .31.12c.29.13.59.25.89.36.13.05.25.09.38.13z" fill="#fed19a"/><path d="m31 62.849a6.864 6.864 0 0 1 -3.513-.969 6.95 6.95 0 0 1 -2.653-8.759l.082-.184a2.179 2.179 0 0 1 4.031.058 2.224 2.224 0 0 1 -.023 1.678l-.132.306a2.5 2.5 0 0 0 .779 3.043 2.466 2.466 0 0 0 2.095.36 2.436 2.436 0 0 0 1.575-1.382l8.03-18.541a.5.5 0 0 1 .729-.22 3.327 3.327 0 0 0 .3.164l.151.074c.229.111.455.221.694.324.113.057.2.1.287.135l.1.041a1.165 1.165 0 0 0 .157.061c.352.151.642.267.931.373.127.049.236.085.355.121a.5.5 0 0 1 .312.677l-8.03 18.53a6.831 6.831 0 0 1 -6.257 4.11zm-4.074-10.233a1.2 1.2 0 0 0 -1.1.722l-.082.186a5.946 5.946 0 0 0 2.256 7.497 5.766 5.766 0 0 0 4.777.549 5.845 5.845 0 0 0 3.567-3.229l7.813-18.041c-.267-.1-.538-.21-.8-.328a1.244 1.244 0 0 1 -.217-.081c-.187-.077-.3-.133-.414-.189-.226-.1-.465-.213-.706-.33l-.044-.021-7.817 18.049a3.428 3.428 0 0 1 -2.223 1.944 3.466 3.466 0 0 1 -2.942-.5 3.5 3.5 0 0 1 -1.123-4.26l.13-.3a1.229 1.229 0 0 0 .014-.92 1.2 1.2 0 0 0 -.637-.654 1.152 1.152 0 0 0 -.452-.094z" fill="#323c6b"/><path d="m27.46 53.48-.13.3a3 3 0 0 0 .95 3.65c.064.045.133.069.2.108a3.084 3.084 0 0 1 -.149-2.758l.13-.3a1.722 1.722 0 0 0 .02-1.3 1.7 1.7 0 0 0 -.9-.93c-.029-.012-.059-.017-.088-.027a1.72 1.72 0 0 1 -.033 1.257z" fill="#f4bb87"/><path d="m44.45 39.88c-.286-.1-.571-.22-.848-.343l-7.8 18a6.333 6.333 0 0 1 -9.06 2.91 5.912 5.912 0 0 1 -.684-.505 5.992 5.992 0 0 0 1.682 1.508 6.333 6.333 0 0 0 9.06-2.91l8.03-18.53c-.13-.04-.25-.08-.38-.13z" fill="#f4bb87"/><g fill="#323c6b"><path d="m41.77 39.06a.5.5 0 0 1 -.457-.7l.12-.27a.5.5 0 1 1 .914.406l-.12.27a.5.5 0 0 1 -.457.294z"/><path d="m44.88 40.39a.5.5 0 0 1 -.457-.7l.11-.25a.5.5 0 1 1 .914.4l-.11.25a.5.5 0 0 1 -.457.3z"/><path d="m32.022 45.545a3.9 3.9 0 0 1 -3.891-3.891.5.5 0 0 1 1 0 2.891 2.891 0 1 0 2.891-2.891.5.5 0 1 1 0-1 3.891 3.891 0 0 1 0 7.781z"/><path d="m9.782 38.764h-1.873a.5.5 0 0 1 0-1h1.873a.5.5 0 0 1 0 1z"/><path d="m32.022 38.764h-17.97a.5.5 0 1 1 0-1h17.97a.5.5 0 0 1 0 1z"/><path d="m20.671 50.59a3.9 3.9 0 0 1 -3.891-3.89.5.5 0 0 1 1 0 2.891 2.891 0 1 0 2.891-2.891.5.5 0 0 1 0-1 3.891 3.891 0 1 1 0 7.781z"/><path d="m20.671 43.809h-17.671a.5.5 0 0 1 0-1h17.671a.5.5 0 1 1 0 1z"/><path d="m24.008 33.781h-18.014a.5.5 0 0 1 0-1h18.014a2.891 2.891 0 1 0 -2.891-2.891.5.5 0 0 1 -1 0 3.891 3.891 0 1 1 3.891 3.891z"/><path d="m51.622 41.641a21.392 21.392 0 0 1 -6.954-1.158.5.5 0 0 1 -.3-.665l.05-.12a.5.5 0 0 1 .563-.3c2.67.555 5.8-.317 8.819-2.449a28.383 28.383 0 0 0 9.24-11.98.5.5 0 0 1 .429-.3.489.489 0 0 1 .462.247 5.847 5.847 0 0 0 6.96 3.014.506.506 0 0 1 .494.17.5.5 0 0 1 .073.517 21.474 21.474 0 0 1 -11.873 11.508 21.713 21.713 0 0 1 -7.963 1.516zm-3.177-1.247a20.605 20.605 0 0 0 21.7-11.319 6.564 6.564 0 0 1 -6.569-2.86 29.008 29.008 0 0 1 -9.2 11.554 15.031 15.031 0 0 1 -5.931 2.625z"/><path d="m34.492 65.169a.5.5 0 0 1 -.187-.963 8.793 8.793 0 0 0 4.789-4.672.5.5 0 0 1 .918.4 9.8 9.8 0 0 1 -5.332 5.2.5.5 0 0 1 -.188.035z"/><path d="m40.5 58.058a.5.5 0 0 1 -.459-.7l.132-.305a.5.5 0 1 1 .918.4l-.132.305a.5.5 0 0 1 -.459.3z"/><path d="m31 62.849a6.864 6.864 0 0 1 -3.513-.969 6.95 6.95 0 0 1 -2.653-8.759l.082-.184a2.179 2.179 0 0 1 4.031.058 2.224 2.224 0 0 1 -.023 1.678l-.132.306a2.5 2.5 0 0 0 .779 3.043 2.466 2.466 0 0 0 2.095.36 2.436 2.436 0 0 0 1.575-1.382l8.03-18.541a.5.5 0 0 1 .729-.22 3.327 3.327 0 0 0 .3.164l.151.074c.229.111.455.221.694.324.113.057.2.1.287.135l.1.041a1.165 1.165 0 0 0 .157.061c.352.151.642.267.931.373.127.049.236.085.355.121a.5.5 0 0 1 .312.677l-8.03 18.53a6.831 6.831 0 0 1 -6.257 4.11zm-4.074-10.233a1.2 1.2 0 0 0 -1.1.722l-.082.186a5.946 5.946 0 0 0 2.256 7.497 5.766 5.766 0 0 0 4.777.549 5.845 5.845 0 0 0 3.567-3.229l7.813-18.041c-.267-.1-.538-.21-.8-.328a1.244 1.244 0 0 1 -.217-.081c-.187-.077-.3-.133-.414-.189-.226-.1-.465-.213-.706-.33l-.044-.021-7.817 18.049a3.428 3.428 0 0 1 -2.223 1.944 3.466 3.466 0 0 1 -2.942-.5 3.5 3.5 0 0 1 -1.123-4.26l.13-.3a1.229 1.229 0 0 0 .014-.92 1.2 1.2 0 0 0 -.637-.654 1.152 1.152 0 0 0 -.452-.094z"/></g><path d="m44.156 20.823-.032-.029a.552.552 0 0 0 -.778.075 2.55 2.55 0 0 0 -.33.447.552.552 0 0 0 .924.606 1.751 1.751 0 0 1 .259-.35.553.553 0 0 0 -.043-.749z" fill="#eeefee"/><path d="m42.9 23.05a.553.553 0 0 0 -.9.128 15.97 15.97 0 0 0 -1.683 7.032.553.553 0 0 0 1.081-.227 15.78 15.78 0 0 1 1.589-6.31.553.553 0 0 0 -.087-.623z" fill="#eeefee"/></g></svg>