<svg height="512" viewBox="0 0 74 74" width="512" xmlns="http://www.w3.org/2000/svg"><g id="line_color" data-name="line color"><g fill="#323c6b"><path d="m.531 47.909a.5.5 0 0 1 -.479-.641c.075-.257.152-.513.233-.769a.5.5 0 0 1 .953.3c-.079.248-.154.5-.228.746a.5.5 0 0 1 -.479.364z"/><path d="m3 57.5h-3a.5.5 0 0 1 -.5-.5v-3a37.825 37.825 0 0 1 .265-4.464.51.51 0 0 1 .554-.436.5.5 0 0 1 .438.556 37.084 37.084 0 0 0 -.257 4.344v2.5h2.5a.5.5 0 0 1 0 1z"/><path d="m67.633 33.77a.5.5 0 0 1 -.422-.232l-.261-.4a.5.5 0 0 1 .836-.549l.269.415a.5.5 0 0 1 -.422.768z"/><path d="m65.588 31.035a.5.5 0 0 1 -.386-.183 36.8 36.8 0 0 0 -7.832-7.125.5.5 0 0 1 .561-.829 37.793 37.793 0 0 1 8.043 7.32.5.5 0 0 1 -.386.817z"/></g><g opacity=".8"><path d="m71 54h-6.69a27.31 27.31 0 1 0 -54.62 0h-6.69a34 34 0 0 1 68 0z" fill="#ef5261"/><path d="m71 54.5h-6.69a.5.5 0 0 1 -.5-.5 26.81 26.81 0 1 0 -53.62 0 .5.5 0 0 1 -.5.5h-6.69a.5.5 0 0 1 -.5-.5 34.5 34.5 0 0 1 69 0 .5.5 0 0 1 -.5.5zm-6.2-1h5.7a33.5 33.5 0 0 0 -67 0h5.7a27.809 27.809 0 0 1 55.609 0z" fill="#323c6b"/></g><g opacity=".8"><path d="m35 22a33.988 33.988 0 0 1 33.937 32h2.063a34 34 0 0 0 -59.018-23.023 33.873 33.873 0 0 1 23.018-8.977z" fill="#ef5261"/></g><g opacity=".8"><path d="m7.771 54h1.919a27.2 27.2 0 0 1 7.039-18.271 27.262 27.262 0 0 0 -8.958 18.271z" fill="#e42542"/></g><path d="m64.31 54h-6.58a20.73 20.73 0 1 0 -41.46 0h-6.58a27.31 27.31 0 1 1 54.62 0z" fill="#fed19a"/><path d="m64.31 54.5h-6.58a.5.5 0 0 1 -.5-.5 20.23 20.23 0 0 0 -40.46 0 .5.5 0 0 1 -.5.5h-6.58a.5.5 0 0 1 -.5-.5 27.81 27.81 0 1 1 55.62 0 .5.5 0 0 1 -.5.5zm-6.085-1h5.575a26.809 26.809 0 0 0 -53.609 0h5.58a21.231 21.231 0 0 1 42.449 0z" fill="#323c6b"/><path d="m57.73 54h-6.79a13.94 13.94 0 0 0 -27.88 0h-6.79a20.73 20.73 0 1 1 41.46 0z" fill="#b1dcc1"/><path d="m57.73 54.5h-6.79a.5.5 0 0 1 -.5-.5 13.44 13.44 0 0 0 -26.88 0 .5.5 0 0 1 -.5.5h-6.79a.5.5 0 0 1 -.5-.5 21.23 21.23 0 0 1 42.46 0 .5.5 0 0 1 -.5.5zm-6.3-1h5.793a20.231 20.231 0 0 0 -40.449 0h5.793a14.44 14.44 0 0 1 28.863 0z" fill="#323c6b"/><path d="m50.94 54h-6.63a7.31 7.31 0 0 0 -14.62 0h-6.63a13.94 13.94 0 0 1 27.88 0z" fill="#b6d2dd"/><path d="m50.94 54.5h-6.63a.5.5 0 0 1 -.5-.5 6.81 6.81 0 0 0 -13.62 0 .5.5 0 0 1 -.5.5h-6.63a.5.5 0 0 1 -.5-.5 14.44 14.44 0 0 1 28.88 0 .5.5 0 0 1 -.5.5zm-6.146-1h5.638a13.441 13.441 0 0 0 -26.863 0h5.638a7.811 7.811 0 0 1 15.588 0z" fill="#323c6b"/><path d="m71 54.5h-6.69a.5.5 0 0 1 -.5-.5 26.81 26.81 0 1 0 -53.62 0 .5.5 0 0 1 -.5.5h-6.69a.5.5 0 0 1 -.5-.5 34.5 34.5 0 0 1 69 0 .5.5 0 0 1 -.5.5zm-6.2-1h5.7a33.5 33.5 0 0 0 -67 0h5.7a27.809 27.809 0 0 1 55.609 0z" fill="#323c6b"/><g opacity=".8"><path d="m71 54.5h-6.69a.5.5 0 0 1 -.5-.5 26.81 26.81 0 1 0 -53.62 0 .5.5 0 0 1 -.5.5h-6.69a.5.5 0 0 1 -.5-.5 34.5 34.5 0 0 1 69 0 .5.5 0 0 1 -.5.5zm-6.2-1h5.7a33.5 33.5 0 0 0 -67 0h5.7a27.809 27.809 0 0 1 55.609 0z" fill="#323c6b"/></g><g opacity=".8"><path d="m71 54.5h-6.69a.5.5 0 0 1 -.5-.5 26.81 26.81 0 1 0 -53.62 0 .5.5 0 0 1 -.5.5h-6.69a.5.5 0 0 1 -.5-.5 34.5 34.5 0 0 1 69 0 .5.5 0 0 1 -.5.5zm-6.2-1h5.7a33.5 33.5 0 0 0 -67 0h5.7a27.809 27.809 0 0 1 55.609 0z" fill="#323c6b"/></g><g fill="#eeefee"><path d="m25.83 26.581c0-.02 0-.04-.008-.061a.776.776 0 0 0 -.894-.637 3.582 3.582 0 0 0 -.762.17.776.776 0 0 0 .422 1.494 2.46 2.46 0 0 1 .6-.133.776.776 0 0 0 .642-.833z"/><path d="m22.444 27.784a.777.777 0 0 0 -1.073-.694 18.682 18.682 0 0 0 -8.016 6.877.776.776 0 0 0 1.357.755 17.466 17.466 0 0 1 7.252-6.2.777.777 0 0 0 .48-.738z"/></g></g></svg>