<svg height="512" viewBox="0 0 74 74" width="512" xmlns="http://www.w3.org/2000/svg"><g id="line_color" data-name="line color"><path d="m36.01 15.29c-4.69.18-8.96 3.35-12.06 8.39-3.22 5.21-5.22 12.41-5.25 20.37-3.59-2.66-7.31-2.81-11.16-.04a28.795 28.795 0 0 1 26.97-28.66 1.224 1.224 0 0 1 .19-.02c.44-.03.87-.04 1.31-.04z" fill="#eeefee"/><g fill="#323c6b"><path d="m18.7 44.55a.5.5 0 0 1 -.3-.1c-3.521-2.608-6.978-2.619-10.57-.036a.5.5 0 0 1 -.792-.408 29.294 29.294 0 0 1 27.441-29.155 1.16 1.16 0 0 1 .221-.021c.417-.03.858-.04 1.31-.04a.5.5 0 0 1 .019 1c-4.384.168-8.523 3.063-11.653 8.152-3.31 5.354-5.147 12.5-5.176 20.11a.5.5 0 0 1 -.5.5zm-5.58-3.058a9.386 9.386 0 0 1 5.093 1.615c.171-7.443 2.045-14.4 5.312-19.689a19.628 19.628 0 0 1 6.874-7 28.3 28.3 0 0 0 -22.34 26.643 9.547 9.547 0 0 1 5.061-1.569z"/><path d="m67.616 38.532a.5.5 0 0 1 -.491-.407l-.049-.248a.5.5 0 0 1 .98-.2l.051.26a.5.5 0 0 1 -.4.584.516.516 0 0 1 -.091.011z"/><path d="m66.839 35.373a.5.5 0 0 1 -.479-.355 30.967 30.967 0 0 0 -3.581-7.773.5.5 0 1 1 .842-.54 31.949 31.949 0 0 1 3.7 8.024.5.5 0 0 1 -.479.645z"/></g><path d="m65.19 44.2c-3.39-2.32-7.13-2.49-11.16-.04.03-7.95-1.92-15.16-5.11-20.4-3.07-5.06-7.31-8.26-12-8.47.44 0 .86.02 1.3.05h.01a28.816 28.816 0 0 1 26.96 28.86z" fill="#eeefee"/><path d="m65.19 44.7a.5.5 0 0 1 -.282-.087c-3.328-2.278-6.9-2.286-10.618-.025a.5.5 0 0 1 -.76-.429c.028-7.6-1.761-14.755-5.038-20.139-3.1-5.111-7.219-8.034-11.6-8.23a.5.5 0 0 1 .022-1c.451 0 .883.021 1.333.051a29.314 29.314 0 0 1 27.443 29.359.5.5 0 0 1 -.5.5zm-22.684-28.251a19.65 19.65 0 0 1 6.841 7.051c3.247 5.333 5.074 12.336 5.179 19.8a9.844 9.844 0 0 1 10.153-.016 28.326 28.326 0 0 0 -22.173-26.835z" fill="#323c6b"/><path d="m53.82 23.79a28.739 28.739 0 0 1 8.339 18.953 10.54 10.54 0 0 1 3.031 1.457 28.816 28.816 0 0 0 -26.96-28.86h-.01c-.44-.03-.86-.05-1.3-.05a11.5 11.5 0 0 1 4.361 1.1 28.869 28.869 0 0 1 12.539 7.4z" fill="#dbd8dd"/><path d="m53.993 42.808c.011.451.039.9.037 1.352a11.877 11.877 0 0 1 4.2-1.638 9.063 9.063 0 0 0 -4.237.286z" fill="#dbd8dd"/><path d="m36.45 15.28c-1.8 0-3.44 3.23-4.64 8.43a96.371 96.371 0 0 0 -1.98 20.37c-3.58-2.48-7.3-2.34-11.13-.03.03-7.96 2.03-15.16 5.25-20.37 3.1-5.04 7.37-8.21 12.06-8.39.15-.01.29-.01.44-.01z" fill="#ef5261"/><path d="m29.83 44.58a.5.5 0 0 1 -.285-.089c-3.322-2.3-6.785-2.305-10.587-.013a.5.5 0 0 1 -.758-.43c.029-7.8 1.92-15.123 5.325-20.63 3.31-5.382 7.737-8.446 12.466-8.627.147-.01.3-.011.459-.011a.5.5 0 0 1 0 1c-1.438 0-2.991 3.006-4.153 8.042a95.672 95.672 0 0 0 -1.967 20.26.5.5 0 0 1 -.5.5zm4.5-28.586c-3.753.758-7.235 3.524-9.956 7.948-3.184 5.151-5.005 11.956-5.165 19.244 3.545-1.879 6.944-1.885 10.124-.015a95.216 95.216 0 0 1 1.99-19.571c.64-2.779 1.622-5.924 3.009-7.606z" fill="#323c6b"/><path d="m54.03 44.16c-3.7-2.29-7.4-2.53-11.12-.03a97.043 97.043 0 0 0 -1.84-20.39c-1.17-5.22-2.8-8.45-4.61-8.46.16 0 .31 0 .46.01 4.69.21 8.93 3.41 12 8.47 3.19 5.24 5.14 12.45 5.11 20.4z" fill="#ef5261"/><path d="m54.03 44.66a.5.5 0 0 1 -.263-.075c-3.727-2.307-7.187-2.321-10.578-.041a.5.5 0 0 1 -.779-.417 96.321 96.321 0 0 0 -1.829-20.279c-1.13-5.044-2.672-8.061-4.125-8.069a.5.5 0 0 1 0-1c.172 0 .333 0 .494.011 4.708.211 9.114 3.3 12.393 8.709 3.372 5.538 5.212 12.876 5.183 20.662a.5.5 0 0 1 -.5.5zm-5.711-2.805a10.87 10.87 0 0 1 5.206 1.434c-.105-7.278-1.881-14.092-5.033-19.27-2.7-4.45-6.17-7.241-9.91-8.018 1.386 1.689 2.351 4.845 2.975 7.629a95.876 95.876 0 0 1 1.853 19.6 9.768 9.768 0 0 1 4.909-1.375z" fill="#323c6b"/><path d="m42.91 44.13a14.374 14.374 0 0 0 -3.98-1.53c-.23-.06-.46-.1-.69-.14a11.966 11.966 0 0 0 -3.73-.01l-.19.03a14.108 14.108 0 0 0 -4.49 1.6 96.371 96.371 0 0 1 1.98-20.37c1.2-5.2 2.84-8.43 4.64-8.43h.01c1.81.01 3.44 3.24 4.61 8.46a97.043 97.043 0 0 1 1.84 20.39z" fill="#eeefee"/><path d="m42.91 44.63a.5.5 0 0 1 -.242-.062 13.932 13.932 0 0 0 -3.841-1.478c-.238-.062-.453-.1-.667-.136a11.457 11.457 0 0 0 -3.575-.009l-.184.029a13.648 13.648 0 0 0 -4.331 1.545.5.5 0 0 1 -.741-.439 96.713 96.713 0 0 1 1.994-20.48c.928-4.023 2.571-8.818 5.127-8.818 2.587.015 4.2 4.821 5.107 8.851a97.363 97.363 0 0 1 1.853 20.5.5.5 0 0 1 -.5.5zm-6.538-2.819a12.161 12.161 0 0 1 1.948.156c.253.044.5.087.737.15a14.274 14.274 0 0 1 3.354 1.183 94.959 94.959 0 0 0 -1.829-19.456c-1.13-5.044-2.672-8.061-4.125-8.069s-3 3.006-4.16 8.042a94.3 94.3 0 0 0 -1.962 19.433 14.321 14.321 0 0 1 3.9-1.269l.113-.018a13.3 13.3 0 0 1 2.024-.152z" fill="#323c6b"/><path d="m65.19 44.7a.5.5 0 0 1 -.282-.087c-3.328-2.278-6.9-2.286-10.618-.025a.5.5 0 0 1 -.76-.429c.028-7.6-1.761-14.755-5.038-20.139-3.1-5.111-7.219-8.034-11.6-8.23a.5.5 0 0 1 .022-1c.451 0 .883.021 1.333.051a29.314 29.314 0 0 1 27.443 29.359.5.5 0 0 1 -.5.5zm-22.684-28.251a19.65 19.65 0 0 1 6.841 7.051c3.247 5.333 5.074 12.336 5.179 19.8a9.844 9.844 0 0 1 10.153-.016 28.326 28.326 0 0 0 -22.173-26.835z" fill="#323c6b"/><path d="m51.54 61.81v.26a8.84 8.84 0 0 1 -7.5 8.86 8.643 8.643 0 0 1 -9.76-8.58l.04-19.87.19-.03a11.966 11.966 0 0 1 3.73.01c.23.04.46.08.69.14l-.04 19.76a4.025 4.025 0 0 0 4.86 3.94 4.083 4.083 0 0 0 3.19-4.05v-.45a2.307 2.307 0 0 1 .68-1.63 2.3 2.3 0 0 1 3.92 1.64z" fill="#fed19a"/><path d="m42.936 71.5a9.137 9.137 0 0 1 -9.155-9.151l.04-19.87a.5.5 0 0 1 .416-.492l.115-.019a12.637 12.637 0 0 1 3.969 0c.253.044.5.087.737.15a.5.5 0 0 1 .374.485l-.04 19.76a3.525 3.525 0 0 0 4.257 3.45 3.582 3.582 0 0 0 2.791-3.563v-.45a2.8 2.8 0 1 1 5.6.01v.26a9.1 9.1 0 0 1 -9.1 9.43zm-8.117-28.589-.039 19.44a8.142 8.142 0 0 0 9.2 8.083 8.314 8.314 0 0 0 7.063-8.365v-.259a1.8 1.8 0 1 0 -3.6-.01v.45a4.583 4.583 0 0 1 -3.591 4.54 4.525 4.525 0 0 1 -5.458-4.43l.035-19.36-.269-.048a11.429 11.429 0 0 0 -3.341-.041z" fill="#323c6b"/><path d="m36.24 42.46c.23.04.46.08.69.14l-.04 19.76a4.025 4.025 0 0 0 4.86 3.94c.048-.01.092-.03.139-.042a4.041 4.041 0 0 1 -3-3.9l.04-19.76c-.23-.06-.46-.1-.69-.14a11.9 11.9 0 0 0 -2.884-.107c.296.027.591.062.885.109z" fill="#f4bb87"/><path d="m49.25 59.5a2.293 2.293 0 0 0 -1.007.237 2.307 2.307 0 0 1 1.3 2.073v.26a8.84 8.84 0 0 1 -7.5 8.86c-.038 0-.074 0-.112.008a8.595 8.595 0 0 0 9.609-8.868v-.26a2.3 2.3 0 0 0 -2.29-2.31z" fill="#f4bb87"/><path d="m31.329 64.729a.5.5 0 0 1 -.5-.462q-.035-.467-.034-.942a.5.5 0 0 1 .5-.5.5.5 0 0 1 .5.5q0 .435.031.865a.5.5 0 0 1 -.461.536z" fill="#323c6b"/><path d="m38.622 73.687a.5.5 0 0 1 -.185-.035 12.236 12.236 0 0 1 -6.67-6.479.5.5 0 1 1 .918-.4 11.233 11.233 0 0 0 6.122 5.945.5.5 0 0 1 -.185.965z" fill="#323c6b"/><path d="m42.936 71.5a9.137 9.137 0 0 1 -9.155-9.151l.04-19.87a.5.5 0 0 1 .416-.492l.115-.019a12.637 12.637 0 0 1 3.969 0c.253.044.5.087.737.15a.5.5 0 0 1 .374.485l-.04 19.76a3.525 3.525 0 0 0 4.257 3.45 3.582 3.582 0 0 0 2.791-3.563v-.45a2.8 2.8 0 1 1 5.6.01v.26a9.1 9.1 0 0 1 -9.1 9.43zm-8.117-28.589-.039 19.44a8.142 8.142 0 0 0 9.2 8.083 8.314 8.314 0 0 0 7.063-8.365v-.259a1.8 1.8 0 1 0 -3.6-.01v.45a4.583 4.583 0 0 1 -3.591 4.54 4.525 4.525 0 0 1 -5.458-4.43l.035-19.36-.269-.048a11.429 11.429 0 0 0 -3.341-.041z" fill="#323c6b"/><path d="m38.22 13.41v1.93c-.44-.03-.86-.05-1.3-.05-.15-.01-.3-.01-.46-.01h-.01c-.15 0-.29 0-.44.01-.44 0-.87.01-1.31.04a1.224 1.224 0 0 0 -.19.02v-1.94a1.855 1.855 0 0 1 3.71 0z" fill="#fed19a"/><path d="m34.51 15.85a.5.5 0 0 1 -.5-.5v-1.94a2.355 2.355 0 0 1 4.71 0v1.93a.5.5 0 0 1 -.534.5c-.428-.029-.837-.049-1.266-.049-.173-.01-.312-.006-.46-.01s-.278 0-.416.009c-.462 0-.881.01-1.31.04a.84.84 0 0 0 -.141.014.488.488 0 0 1 -.083.006zm1.86-3.79a1.357 1.357 0 0 0 -1.36 1.35v1.4c.324-.016.659-.021 1-.021a7.343 7.343 0 0 1 .944 0c.252 0 .5.006.766.019v-1.4a1.351 1.351 0 0 0 -1.35-1.348z" fill="#323c6b"/><path d="m36.37 11.56a9.425 9.425 0 0 0 -1.135.077 1.847 1.847 0 0 1 1.352 1.773v1.89c.333.007 1.295.015 1.633.038v-1.928a1.852 1.852 0 0 0 -1.85-1.85z" fill="#f4bb87"/><path d="m35.92 15.29c-.15-.01-.3-.01-.46-.01h-.01c-.15 0-.29 0-.44.01-.168 0-.334.012-.5.015v.045a1.224 1.224 0 0 1 .19-.02c.423-.029.837-.038 1.26-.038z" fill="#f4bb87"/><g fill="#323c6b"><path d="m38.22 15.845a.5.5 0 0 1 -.5-.495v-.01a.5.5 0 1 1 .5.5z"/><path d="m34.51 15.85a.5.5 0 0 1 -.5-.5v-1.94a2.355 2.355 0 0 1 4.71 0v1.93a.5.5 0 0 1 -.534.5c-.428-.029-.837-.049-1.266-.049-.173-.01-.312-.006-.46-.01s-.278 0-.416.009c-.462 0-.881.01-1.31.04a.84.84 0 0 0 -.141.014.488.488 0 0 1 -.083.006zm1.86-3.79a1.357 1.357 0 0 0 -1.36 1.35v1.4c.324-.016.659-.021 1-.021a7.343 7.343 0 0 1 .944 0c.252 0 .5.006.766.019v-1.4a1.351 1.351 0 0 0 -1.35-1.348z"/><path d="m59.718 5.887a.5.5 0 0 1 -.366-.841l2.222-2.387a.5.5 0 1 1 .731.682l-2.222 2.387a.5.5 0 0 1 -.365.159z"/><path d="m47.858 5.887a.5.5 0 0 1 -.366-.841l2.222-2.387a.5.5 0 1 1 .731.682l-2.221 2.387a.5.5 0 0 1 -.366.159z"/><path d="m36 5.887a.5.5 0 0 1 -.366-.841l2.222-2.387a.5.5 0 1 1 .731.682l-2.223 2.387a.5.5 0 0 1 -.364.159z"/><path d="m24.139 5.887a.5.5 0 0 1 -.366-.841l2.227-2.387a.5.5 0 1 1 .731.682l-2.231 2.387a.5.5 0 0 1 -.361.159z"/><path d="m12.28 5.887a.5.5 0 0 1 -.366-.841l2.222-2.387a.5.5 0 1 1 .731.682l-2.221 2.387a.5.5 0 0 1 -.366.159z"/><path d="m64.236 13.252a.5.5 0 0 1 -.366-.841l2.222-2.387a.5.5 0 1 1 .731.682l-2.223 2.387a.5.5 0 0 1 -.364.159z"/><path d="m52.376 13.252a.5.5 0 0 1 -.366-.841l2.222-2.387a.5.5 0 0 1 .731.682l-2.222 2.387a.5.5 0 0 1 -.365.159z"/><path d="m41.5 12.265a.5.5 0 0 1 -.375-.831l1.234-1.4a.5.5 0 1 1 .75.661l-1.234 1.4a.5.5 0 0 1 -.375.17z"/><path d="m28.657 13.252a.5.5 0 0 1 -.366-.841l2.222-2.387a.5.5 0 0 1 .731.682l-2.222 2.387a.5.5 0 0 1 -.365.159z"/><path d="m16.8 13.252a.5.5 0 0 1 -.366-.841l2.222-2.387a.5.5 0 0 1 .731.682l-2.222 2.387a.5.5 0 0 1 -.365.159z"/><path d="m57.776 19.631a.5.5 0 0 1 -.376-.831l1.234-1.4a.5.5 0 1 1 .75.661l-1.234 1.4a.5.5 0 0 1 -.374.17z"/><path d="m9.351 20.618a.5.5 0 0 1 -.366-.841l2.222-2.387a.5.5 0 1 1 .731.682l-2.222 2.387a.5.5 0 0 1 -.365.159z"/></g><path d="m27.106 25.565-.043-.038a.725.725 0 0 0 -1.021.1 3.347 3.347 0 0 0 -.433.587.725.725 0 0 0 1.213.795 2.3 2.3 0 0 1 .34-.459.725.725 0 0 0 -.056-.985z" fill="#eeefee"/><path d="m25.455 28.488a.726.726 0 0 0 -1.182.168 20.96 20.96 0 0 0 -2.209 9.228.725.725 0 0 0 1.419-.3 20.711 20.711 0 0 1 2.087-8.284.726.726 0 0 0 -.115-.812z" fill="#eeefee"/></g></svg>