<svg height="512" viewBox="0 0 74 74" width="512" xmlns="http://www.w3.org/2000/svg"><g id="line_color" data-name="line color"><path d="m55.219 73.906h-.531a.5.5 0 1 1 0-1h.531a.5.5 0 0 1 0 1z" fill="#323c6b"/><path d="m64.2 73.906h-6.262a.5.5 0 1 1 0-1h5.762v-2.156a.5.5 0 0 1 1 0v2.656a.5.5 0 0 1 -.5.5z" fill="#323c6b"/><path d="m61.196 43.686v26.72h-41.632v-26.72l20.974-20.905z" fill="#eeefee"/><path d="m61.2 70.906h-41.636a.5.5 0 0 1 -.5-.5v-26.72a.5.5 0 0 1 .147-.354l20.974-20.9a.606.606 0 0 1 .354-.146.5.5 0 0 1 .354.148l20.658 20.9a.5.5 0 0 1 .145.352v26.72a.5.5 0 0 1 -.496.5zm-41.132-1h40.632v-26.015l-20.161-20.4-20.471 20.4z" fill="#323c6b"/><path d="m40.538 22.781-2.009 2.002 19.667 19.902v25.721h3v-26.721z" fill="#dbd8dd"/><path d="m31.919 41.549h17.347v17.347h-17.347z" fill="#b6d2dd"/><g fill="#323c6b"><path d="m49.266 59.4h-17.347a.5.5 0 0 1 -.5-.5v-17.351a.5.5 0 0 1 .5-.5h17.347a.5.5 0 0 1 .5.5v17.351a.5.5 0 0 1 -.5.5zm-16.847-1h16.347v-16.351h-16.347z"/><path d="m40.593 59.4a.5.5 0 0 1 -.5-.5v-17.351a.5.5 0 0 1 1 0v17.351a.5.5 0 0 1 -.5.5z"/><path d="m61.962 19.921a.5.5 0 0 1 -.417-.225l-.344-.521a.5.5 0 0 1 .834-.551l.344.521a.5.5 0 0 1 -.417.775z"/><path d="m60.132 17.155a.5.5 0 0 1 -.417-.224l-5.276-7.976a.5.5 0 0 1 .834-.552l5.275 7.976a.5.5 0 0 1 -.417.776z"/></g><path d="m45.689 15.185 18.609 27.913 6.702-4.574-23.103-34.93-34.615 23.576 4.258 6.545z" fill="#fed19a"/><path d="m64.3 43.6a.489.489 0 0 1 -.1-.009.5.5 0 0 1 -.32-.213l-18.333-27.5-27.732 18.254a.5.5 0 0 1 -.694-.145l-4.258-6.545a.5.5 0 0 1 .137-.685l34.616-23.576a.494.494 0 0 1 .378-.078.5.5 0 0 1 .32.215l23.1 34.93a.5.5 0 0 1 -.135.689l-6.7 4.573a.5.5 0 0 1 -.279.09zm-18.611-28.915a.5.5 0 0 1 .416.223l18.329 27.492 5.878-4.011-22.552-34.096-33.791 23.015 3.716 5.713 27.729-18.253a.5.5 0 0 1 .275-.083z" fill="#323c6b"/><path d="m44.358 12.427-28.473 18.744 1.655 2.544 28.501-18.763z" fill="#f4bb87"/><path d="m47.897 3.594-2.302 1.568 21.405 32.362-4.411 3.01 1.709 2.564 6.702-4.574z" fill="#f4bb87"/><g fill="#323c6b"><path d="m26.923 12.667h-22.655a.5.5 0 0 1 0-1h22.655a3.657 3.657 0 1 0 -3.651-3.667.5.5 0 1 1 -1 0 4.651 4.651 0 1 1 4.65 4.663z"/><path d="m10.517 24.792h-7.517a.5.5 0 0 1 0-1h7.517a3.657 3.657 0 1 0 -3.65-3.664.5.5 0 0 1 -1 0 4.651 4.651 0 1 1 4.65 4.664z"/><path d="m11.962 56.333a4.655 4.655 0 0 1 -4.65-4.65.5.5 0 0 1 1 0 3.65 3.65 0 1 0 3.65-3.663h-8.773a.5.5 0 0 1 0-1h8.772a4.657 4.657 0 0 1 0 9.313z"/><path d="m10.05 30.587h-7.05a.5.5 0 1 1 0-1h7.05a.5.5 0 0 1 0 1z"/><path d="m14.1 36.475h-11.1a.5.5 0 0 1 0-1h11.1a.5.5 0 0 1 0 1z"/><path d="m17.619 42.049h-10.303a.5.5 0 0 1 0-1h10.3a.5.5 0 0 1 0 1z"/><path d="m61.2 70.906h-41.636a.5.5 0 0 1 -.5-.5v-26.72a.5.5 0 0 1 .147-.354l20.974-20.9a.606.606 0 0 1 .354-.146.5.5 0 0 1 .354.148l20.658 20.9a.5.5 0 0 1 .145.352v26.72a.5.5 0 0 1 -.496.5zm-41.132-1h40.632v-26.015l-20.161-20.4-20.471 20.4z"/><path d="m64.3 43.6a.489.489 0 0 1 -.1-.009.5.5 0 0 1 -.32-.213l-18.333-27.5-27.732 18.254a.5.5 0 0 1 -.694-.145l-4.258-6.545a.5.5 0 0 1 .137-.685l34.616-23.576a.494.494 0 0 1 .378-.078.5.5 0 0 1 .32.215l23.1 34.93a.5.5 0 0 1 -.135.689l-6.7 4.573a.5.5 0 0 1 -.279.09zm-18.611-28.915a.5.5 0 0 1 .416.223l18.329 27.492 5.878-4.011-22.552-34.096-33.791 23.015 3.716 5.713 27.729-18.253a.5.5 0 0 1 .275-.083z"/></g><path d="m32.984 68.093a.619.619 0 0 1 -.619.619h-.89a.619.619 0 0 1 0-1.238h.89a.619.619 0 0 1 .619.619z" fill="#dbd8dd"/><path d="m28.939 68.093a.619.619 0 0 1 -.619.619h-6.077a.619.619 0 0 1 -.619-.619v-5.148a.619.619 0 1 1 1.238 0v4.528h5.458a.619.619 0 0 1 .619.62z" fill="#dbd8dd"/></g></svg>