<?xml version="1.0"?>
<svg xmlns="http://www.w3.org/2000/svg" viewBox="0 0 74 74" width="512" height="512"><g id="line_color" data-name="line color"><path d="M13.032,58.037a.5.5,0,0,1-.388-.184,31.341,31.341,0,0,1-5.087-8.865.5.5,0,0,1,.938-.35,30.333,30.333,0,0,0,4.925,8.583.5.5,0,0,1-.388.816Z" fill="#323c6b"/><path d="M15.608,60.83a.5.5,0,0,1-.346-.139q-.313-.3-.617-.607a.5.5,0,0,1,.711-.7q.3.3.6.589a.5.5,0,0,1-.346.861Z" fill="#323c6b"/><path d="M64.88,38.04a26.965,26.965,0,0,1-.72,6.27,8.144,8.144,0,0,0-13.26-.8,6.112,6.112,0,0,0-2.02-.33,6.3,6.3,0,0,0-6.3,6.28,5.281,5.281,0,0,0,.78,10.51H54.19A27.864,27.864,0,0,1,9.09,38.04a28.314,28.314,0,0,1,1.57-9.24H32.39a5.618,5.618,0,0,0,.82-11.18,6.676,6.676,0,0,0-4.39-6.26,28.509,28.509,0,0,1,8.16-1.22A27.892,27.892,0,0,1,64.88,38.04Z" fill="#eeefee"/><path d="M36.98,66.44A28.428,28.428,0,0,1,8.59,38.04a28.914,28.914,0,0,1,1.6-9.4.5.5,0,0,1,.472-.335H32.39a5.118,5.118,0,0,0,.748-10.185.5.5,0,0,1-.428-.493,6.2,6.2,0,0,0-4.061-5.792.5.5,0,0,1,.027-.949,28.928,28.928,0,0,1,8.3-1.241,28.432,28.432,0,0,1,28.4,28.4,27.581,27.581,0,0,1-.733,6.386.5.5,0,0,1-.911.148,7.643,7.643,0,0,0-12.443-.753.5.5,0,0,1-.556.161,5.636,5.636,0,0,0-1.856-.3,5.808,5.808,0,0,0-5.8,5.781.5.5,0,0,1-.427.493,4.781,4.781,0,0,0,.707,9.515H54.19a.5.5,0,0,1,.309.894A28.571,28.571,0,0,1,36.98,66.44ZM11.018,29.3A27.931,27.931,0,0,0,9.59,38.04,27.359,27.359,0,0,0,52.674,60.47H43.36a5.78,5.78,0,0,1-1.267-11.429A6.812,6.812,0,0,1,48.88,42.68a6.732,6.732,0,0,1,1.851.251,8.649,8.649,0,0,1,13.178.171,26.894,26.894,0,0,0,.472-5.062A27.382,27.382,0,0,0,30.239,11.487,7.221,7.221,0,0,1,33.7,17.2,6.117,6.117,0,0,1,32.39,29.3Z" fill="#323c6b"/><path d="M36.98,10.14a28.509,28.509,0,0,0-8.16,1.22,6.63,6.63,0,0,1,1.929,1.111A27.848,27.848,0,0,1,62.88,40.04c0,.873-.05,1.733-.128,2.585A8.13,8.13,0,0,1,64.16,44.31a26.965,26.965,0,0,0,.72-6.27A27.892,27.892,0,0,0,36.98,10.14Z" fill="#dbd8dd"/><path d="M40.736,50.1a5.33,5.33,0,0,1,1.844-.637,6.256,6.256,0,0,1,.964-3.316A6.3,6.3,0,0,0,40.736,50.1Z" fill="#dbd8dd"/><path d="M21.465,6.2a.507.507,0,0,1-.164-.027c-.143-.05-.285-.1-.43-.139a.5.5,0,0,1,.287-.958c.158.047.314.1.471.152a.5.5,0,0,1-.164.973Z" fill="#323c6b"/><path d="M9.395,8.988a.5.5,0,0,1-.354-.854A12.151,12.151,0,0,1,18.2,4.573a.5.5,0,0,1,.476.522.488.488,0,0,1-.522.477,11.136,11.136,0,0,0-8.409,3.27A.5.5,0,0,1,9.395,8.988Z" fill="#323c6b"/><path d="M38.04,23.18a5.638,5.638,0,0,1-5.65,5.62H9.47a6.426,6.426,0,0,1-.44-12.84,8.644,8.644,0,0,1,15.35-4.67,6.562,6.562,0,0,1,2.13-.35,6.355,6.355,0,0,1,2.31.42,6.676,6.676,0,0,1,4.39,6.26A5.633,5.633,0,0,1,38.04,23.18Z" fill="#b6d2dd"/><path d="M32.39,29.3H9.47a6.925,6.925,0,0,1-.9-13.8A9.147,9.147,0,0,1,24.55,10.712,7.215,7.215,0,0,1,33.7,17.2,6.117,6.117,0,0,1,32.39,29.3ZM17.64,8.56A8.137,8.137,0,0,0,9.528,16a.5.5,0,0,1-.466.461A5.926,5.926,0,0,0,9.47,28.3H32.39a5.118,5.118,0,0,0,.748-10.185.5.5,0,0,1-.428-.493,6.2,6.2,0,0,0-4.061-5.792,6.122,6.122,0,0,0-4.107-.066.5.5,0,0,1-.552-.16A8.1,8.1,0,0,0,17.64,8.56Z" fill="#323c6b"/><path d="M33.21,17.62a6.676,6.676,0,0,0-4.39-6.26,6.355,6.355,0,0,0-2.31-.42,6.562,6.562,0,0,0-2.13.35,8.655,8.655,0,0,0-13.787.4,8.648,8.648,0,0,1,11.787,1.6,6.562,6.562,0,0,1,2.13-.35,6.355,6.355,0,0,1,2.31.42,6.676,6.676,0,0,1,4.39,6.26,5.633,5.633,0,0,1,4.83,5.56,5.56,5.56,0,0,1-.776,2.832A5.606,5.606,0,0,0,33.21,17.62Z" fill="#acc6cc"/><path d="M71,53.93a6.056,6.056,0,0,1-6.08,6.04H43.36a5.281,5.281,0,0,1-.78-10.51,6.3,6.3,0,0,1,6.3-6.28,6.112,6.112,0,0,1,2.02.33,8.144,8.144,0,0,1,13.26.8,8.152,8.152,0,0,1,1.17,3.59A6.065,6.065,0,0,1,71,53.93Z" fill="#b6d2dd"/><path d="M64.92,60.47H43.36a5.78,5.78,0,0,1-1.267-11.429A6.812,6.812,0,0,1,48.88,42.68a6.732,6.732,0,0,1,1.851.251,8.6,8.6,0,0,1,15.054,4.511A6.54,6.54,0,0,1,64.92,60.47ZM48.88,43.68a5.808,5.808,0,0,0-5.8,5.781.5.5,0,0,1-.427.493,4.781,4.781,0,0,0,.707,9.515H64.92A5.541,5.541,0,0,0,65.3,48.4a.5.5,0,0,1-.465-.457,7.623,7.623,0,0,0-13.54-4.121.5.5,0,0,1-.556.161A5.636,5.636,0,0,0,48.88,43.68Z" fill="#323c6b"/><path d="M39.992,50.6a5.288,5.288,0,0,1,.588-.142c0-.09.01-.178.014-.268A5.342,5.342,0,0,0,39.992,50.6Z" fill="#acc6cc"/><path d="M65.33,47.9a8.116,8.116,0,0,0-12.683-6,8.082,8.082,0,0,1,10.683,7A6.028,6.028,0,0,1,66.6,59.732,6.034,6.034,0,0,0,65.33,47.9Z" fill="#acc6cc"/><path d="M52.26,26.036a3.179,3.179,0,1,1-3.179-3.179A3.188,3.188,0,0,1,52.26,26.036Z" fill="#dbd8dd"/><path d="M49.082,29.715a3.678,3.678,0,1,1,3.679-3.678A3.683,3.683,0,0,1,49.082,29.715Zm0-6.357a2.678,2.678,0,1,0,2.679,2.679A2.682,2.682,0,0,0,49.082,23.358Z" fill="#323c6b"/><path d="M23.7,38.041a3.179,3.179,0,1,1-3.179-3.179A3.188,3.188,0,0,1,23.7,38.041Z" fill="#dbd8dd"/><path d="M20.521,41.719A3.678,3.678,0,1,1,24.2,38.041,3.682,3.682,0,0,1,20.521,41.719Zm0-6.357A2.678,2.678,0,1,0,23.2,38.041,2.681,2.681,0,0,0,20.521,35.362Z" fill="#323c6b"/><path d="M30.714,51.469a2.657,2.657,0,1,1-2.657-2.657A2.665,2.665,0,0,1,30.714,51.469Z" fill="#dbd8dd"/><path d="M28.057,54.626a3.157,3.157,0,1,1,3.157-3.157A3.16,3.16,0,0,1,28.057,54.626Zm0-5.313a2.157,2.157,0,1,0,2.157,2.157A2.159,2.159,0,0,0,28.057,49.313Z" fill="#323c6b"/><path d="M64.92,60.47H43.36a5.78,5.78,0,0,1-1.267-11.429A6.812,6.812,0,0,1,48.88,42.68a6.732,6.732,0,0,1,1.851.251,8.6,8.6,0,0,1,15.054,4.511A6.54,6.54,0,0,1,64.92,60.47ZM48.88,43.68a5.808,5.808,0,0,0-5.8,5.781.5.5,0,0,1-.427.493,4.781,4.781,0,0,0,.707,9.515H64.92A5.541,5.541,0,0,0,65.3,48.4a.5.5,0,0,1-.465-.457,7.623,7.623,0,0,0-13.54-4.121.5.5,0,0,1-.556.161A5.636,5.636,0,0,0,48.88,43.68Z" fill="#323c6b"/><path d="M32.39,29.3H9.47a6.925,6.925,0,0,1-.9-13.8A9.147,9.147,0,0,1,24.55,10.712,7.215,7.215,0,0,1,33.7,17.2,6.117,6.117,0,0,1,32.39,29.3ZM17.64,8.56A8.137,8.137,0,0,0,9.528,16a.5.5,0,0,1-.466.461A5.926,5.926,0,0,0,9.47,28.3H32.39a5.118,5.118,0,0,0,.748-10.185.5.5,0,0,1-.428-.493,6.2,6.2,0,0,0-4.061-5.792,6.122,6.122,0,0,0-4.107-.066.5.5,0,0,1-.552-.16A8.1,8.1,0,0,0,17.64,8.56Z" fill="#323c6b"/><path d="M36.98,66.44A28.428,28.428,0,0,1,8.59,38.04a28.914,28.914,0,0,1,1.6-9.4.5.5,0,0,1,.472-.335H32.39a5.118,5.118,0,0,0,.748-10.185.5.5,0,0,1-.428-.493,6.2,6.2,0,0,0-4.061-5.792.5.5,0,0,1,.027-.949,28.928,28.928,0,0,1,8.3-1.241,28.432,28.432,0,0,1,28.4,28.4,27.581,27.581,0,0,1-.733,6.386.5.5,0,0,1-.911.148,7.643,7.643,0,0,0-12.443-.753.5.5,0,0,1-.556.161,5.636,5.636,0,0,0-1.856-.3,5.808,5.808,0,0,0-5.8,5.781.5.5,0,0,1-.427.493,4.781,4.781,0,0,0,.707,9.515H54.19a.5.5,0,0,1,.309.894A28.571,28.571,0,0,1,36.98,66.44ZM11.018,29.3A27.931,27.931,0,0,0,9.59,38.04,27.359,27.359,0,0,0,52.674,60.47H43.36a5.78,5.78,0,0,1-1.267-11.429A6.812,6.812,0,0,1,48.88,42.68a6.732,6.732,0,0,1,1.851.251,8.649,8.649,0,0,1,13.178.171,26.894,26.894,0,0,0,.472-5.062A27.382,27.382,0,0,0,30.239,11.487,7.221,7.221,0,0,1,33.7,17.2,6.117,6.117,0,0,1,32.39,29.3Z" fill="#323c6b"/><path d="M14.579,44.339l-.074.011a.951.951,0,0,0-.764,1.108,4.392,4.392,0,0,0,.223.931.951.951,0,1,0,1.823-.546,3.016,3.016,0,0,1-.174-.729A.952.952,0,0,0,14.579,44.339Z" fill="#dbd8dd"/><path d="M16.119,48.466a.953.953,0,0,0-.83,1.328,17.737,17.737,0,0,0,8.51,8.7.952.952,0,0,0,.9-1.677,15.969,15.969,0,0,1-7.662-7.774A.952.952,0,0,0,16.119,48.466Z" fill="#dbd8dd"/></g></svg>
